<svg width="15" height="22" viewBox="0 0 15 22" fill="none" xmlns="http://www.w3.org/2000/svg">
<path d="M15 7.26068C15 8.47721 14.7383 9.59402 14.215 10.6111C13.6916 11.6083 12.8879 12.416 11.8037 13.0342C10.7196 13.6524 9.37383 13.9615 7.76636 13.9615H4.79439V21.5H0V0.5H7.76636C9.33645 0.5 10.6636 0.789173 11.7477 1.36752C12.8318 1.94587 13.6449 2.74359 14.1869 3.76068C14.729 4.77778 15 5.94444 15 7.26068ZM7.40187 9.89316C8.31776 9.89316 9 9.66382 9.4486 9.20513C9.8972 8.74644 10.1215 8.09829 10.1215 7.26068C10.1215 6.42308 9.8972 5.77493 9.4486 5.31624C9 4.85755 8.31776 4.62821 7.40187 4.62821H4.79439V9.89316H7.40187Z" fill="white"/>
</svg>
