<svg width="17" height="23" viewBox="0 0 17 23" fill="none" xmlns="http://www.w3.org/2000/svg">
<path d="M7.00501 2.78117V0.787109H9.3448V2.8154C9.66414 2.82681 9.98655 2.84678 10.312 2.87531C10.6375 2.89813 10.9507 2.93807 11.2516 2.99512C11.5587 3.04647 11.8473 3.11208 12.1175 3.19196C12.3939 3.27184 12.6395 3.36883 12.8545 3.48294C13.1861 3.66551 13.5024 3.88232 13.8033 4.13336C14.1103 4.3844 14.3806 4.66967 14.6139 4.98918C14.8473 5.30868 15.0315 5.66242 15.1666 6.05039C15.3079 6.43266 15.3785 6.85201 15.3785 7.30845C15.3785 7.69642 15.3294 8.06157 15.2311 8.40389C15.1329 8.74052 14.9947 9.05432 14.8166 9.34529C14.6385 9.63057 14.4266 9.89017 14.181 10.1241C13.9415 10.358 13.6743 10.5634 13.3795 10.7403C13.791 10.9229 14.1687 11.1511 14.5126 11.4249C14.8565 11.6931 15.1513 11.9983 15.3969 12.3407C15.6426 12.6773 15.8329 13.0424 15.9681 13.4361C16.1032 13.8298 16.1707 14.2406 16.1707 14.6685C16.1707 15.1021 16.1093 15.5329 15.9865 15.9608C15.8637 16.383 15.6794 16.7881 15.4338 17.176C15.1943 17.564 14.8933 17.9234 14.531 18.2544C14.1748 18.5853 13.7603 18.8734 13.2874 19.1187C12.8207 19.3584 12.2987 19.5466 11.7214 19.6836C11.1442 19.8205 10.5147 19.889 9.83302 19.889H9.3448V22.2339H7.00501V19.889H0.851562V2.78117H7.00501ZM12.1728 14.6C12.1728 14.252 12.093 13.9525 11.9333 13.7014C11.7736 13.4447 11.5618 13.2307 11.2977 13.0595C11.0336 12.8884 10.7296 12.76 10.3857 12.6744C10.048 12.5831 9.70099 12.5232 9.3448 12.4947V16.9107H9.49219C9.92821 16.9107 10.312 16.8537 10.6437 16.7396C10.9814 16.6198 11.2608 16.4571 11.4819 16.2517C11.7092 16.0464 11.8811 15.8039 11.9978 15.5243C12.1145 15.239 12.1728 14.9309 12.1728 14.6ZM7.00501 16.9107V12.4947H4.84946V16.9107H7.00501ZM7.00501 9.75609V5.75941H4.84946V9.75609H7.00501ZM11.4174 7.7278C11.4174 7.40259 11.3622 7.12872 11.2516 6.90621C11.1472 6.67799 11.0029 6.49257 10.8187 6.34993C10.6344 6.20159 10.4164 6.08748 10.1646 6.0076C9.91286 5.92773 9.63958 5.87067 9.3448 5.83644V9.68762C10.0817 9.57922 10.6099 9.35385 10.9292 9.01153C11.2547 8.66349 11.4174 8.23558 11.4174 7.7278Z" fill="white"/>
</svg>
