<svg width="18" height="18" viewBox="0 0 18 18" fill="none" xmlns="http://www.w3.org/2000/svg">
<g clip-path="url(#clip0_1967_22251)">
<path d="M7.93935 17.4845L17.4853 7.93853C17.6259 7.79788 17.705 7.60712 17.705 7.4082C17.705 7.20929 17.6259 7.01853 17.4853 6.87787L15.364 4.75655L14.8904 5.23014C14.3622 5.75835 13.511 5.88722 12.9048 5.45076C12.7268 5.32438 12.5784 5.16067 12.4701 4.97104C12.3619 4.78142 12.2963 4.57045 12.2779 4.35286C12.2596 4.13527 12.289 3.9163 12.364 3.71124C12.439 3.50617 12.5579 3.31995 12.7123 3.16556L13.2427 2.63523L11.1213 0.513912C10.9807 0.37326 10.7899 0.294242 10.591 0.294242C10.3921 0.294242 10.2013 0.37326 10.0607 0.513912L0.514732 10.0599C0.37408 10.2005 0.295062 10.3913 0.295062 10.5902C0.295062 10.7891 0.37408 10.9799 0.514732 11.1205L2.63605 13.2418L3.16638 12.7115C3.32077 12.5571 3.50699 12.4382 3.71206 12.3632C3.91712 12.2882 4.13609 12.2588 4.35368 12.2771C4.57127 12.2954 4.78224 12.361 4.97186 12.4693C5.16149 12.5776 5.3252 12.7259 5.45158 12.904C5.88804 13.5102 5.75917 14.3614 5.23096 14.8896L4.75737 15.3632L6.87869 17.4845C7.01935 17.6251 7.21011 17.7041 7.40902 17.7041C7.60794 17.7041 7.7987 17.6251 7.93935 17.4845ZM6.87869 5.81721L7.93935 4.75655L9.00001 5.81721L7.93935 6.87787L6.87869 5.81721ZM9.00001 7.93853L10.0607 6.87787L11.1213 7.93853L10.0607 8.99919L9.00001 7.93853ZM11.1213 10.0599L12.182 8.99919L13.2427 10.0599L12.182 11.1205L11.1213 10.0599Z" fill="#325FA4"/>
</g>
<defs>
<clipPath id="clip0_1967_22251">
<rect width="18" height="18" fill="white"/>
</clipPath>
</defs>
</svg>
