<svg width="86" height="25" viewBox="0 0 86 25" fill="none" xmlns="http://www.w3.org/2000/svg">
<g clip-path="url(#clip0_511_31385)">
<path d="M45.0949 1.35575C47.7414 1.35575 50.133 2.35358 51.9551 4.2462L52.9205 1.42625C50.9193 0.536876 48.2728 0 45.5938 0C37.1663 0 31.9492 4.859 31.9492 12.679C31.9492 20.2169 36.8409 25 44.52 25C47.6275 25 50.3391 24.2516 52.3781 22.8579L52.6981 20.6453C50.4096 22.5759 47.8064 23.6117 45.16 23.6117C39.1945 23.6117 35.5502 19.436 35.5502 12.6464C35.561 5.74837 39.2759 1.35575 45.0949 1.35575Z" fill="#022C6D"/>
<path d="M68.6415 12.6464C68.6415 5.7538 72.3564 1.36117 78.1754 1.36117C80.8165 1.36117 83.2135 2.359 85.0302 4.25163L85.9956 1.43167C83.9998 0.536876 81.3534 0 78.6798 0C70.2522 0 65.0352 4.859 65.0352 12.679C65.0352 20.2169 69.9268 25 77.6114 25C80.7189 25 83.4358 24.2516 85.4695 22.8579L85.7895 20.6453C83.5063 22.5759 80.8924 23.6117 78.2513 23.6117C72.2859 23.6117 68.6415 19.4306 68.6415 12.6464Z" fill="#022C6D"/>
<path d="M24.7946 0.0703125C21.8118 5.34146 15.1956 17.6679 14.3767 18.964C14.3767 18.964 6.01425 3.53561 4.23004 0.0703125H3.65519C2.9068 5.72107 1.25274 18.438 0 24.5009H2.61937C2.83087 21.0139 3.97515 9.68528 4.37104 6.75144C4.37104 6.75144 11.1879 19.2948 13.6717 24.1484C14.4309 22.6137 20.2771 11.0573 23.1242 6.46945C23.6882 10.4065 24.6698 20.9651 24.8379 24.5063H28.1949C28.1949 24.5063 25.787 6.20914 25.3748 0.0757355H24.7946V0.0703125Z" fill="#022C6D"/>
<path d="M57.0312 0.395996C57.579 8.82875 57.0312 24.5012 57.0312 24.5012H60.4695C60.4695 24.5012 59.9218 8.82875 60.4695 0.395996H57.0312Z" fill="#022C6D"/>
</g>
<defs>
<clipPath id="clip0_511_31385">
<rect width="86" height="25" fill="white"/>
</clipPath>
</defs>
</svg>
