<svg width="18" height="18" viewBox="0 0 18 18" fill="none" xmlns="http://www.w3.org/2000/svg">
<path d="M13.6875 16.5L11.625 14.25L12.495 13.365L13.6875 14.5575L16.38 11.865L17.25 12.9225M14.625 2.625L13.5 1.5L12.375 2.625L11.25 1.5L10.125 2.625L9 1.5L7.875 2.625L6.75 1.5L5.625 2.625L4.5 1.5L3.375 2.625L2.25 1.5V16.5L3.375 15.375L4.5 16.5L5.625 15.375L6.75 16.5L7.875 15.375L9 16.5L9.945 15.555C9.8175 15.135 9.75 14.6925 9.75 14.25C9.75 13.74 9.84 13.23 10.005 12.75H4.5V11.25H10.8975C11.4921 10.5852 12.2707 10.1119 13.1346 9.89026C13.9985 9.6686 14.9088 9.70854 15.75 10.005V1.5L14.625 2.625ZM13.5 9.75H4.5V8.25H13.5V9.75ZM13.5 6.75H4.5V5.25H13.5V6.75Z" fill="#325FA4"/>
</svg>
