<svg width="20" height="20" viewBox="0 0 20 20" fill="none" xmlns="http://www.w3.org/2000/svg">
<path d="M9.99766 9.11111C10.721 9.11111 11.428 8.90258 12.0295 8.51189C12.6309 8.1212 13.0996 7.5659 13.3764 6.91621C13.6532 6.26652 13.7256 5.55161 13.5845 4.8619C13.4434 4.17219 13.0951 3.53865 12.5836 3.0414C12.0722 2.54415 11.4205 2.20551 10.7111 2.06832C10.0017 1.93113 9.26638 2.00154 8.59813 2.27065C7.92987 2.53976 7.35871 2.99549 6.95685 3.5802C6.555 4.1649 6.34051 4.85233 6.34051 5.55556C6.34051 6.49855 6.72582 7.40292 7.41167 8.06971C8.09751 8.73651 9.02772 9.11111 9.99766 9.11111ZM15.4834 18C15.7259 18 15.9584 17.9064 16.1299 17.7397C16.3013 17.573 16.3977 17.3469 16.3977 17.1111C16.3977 15.4609 15.7234 13.8782 14.5231 12.7113C13.3229 11.5444 11.695 10.8889 9.99766 10.8889C8.30027 10.8889 6.67241 11.5444 5.47217 12.7113C4.27194 13.8782 3.59766 15.4609 3.59766 17.1111C3.59766 17.3469 3.69398 17.573 3.86544 17.7397C4.03691 17.9064 4.26946 18 4.51194 18H15.4834Z" fill="#325FA4"/>
</svg>
