<svg width="20" height="20" viewBox="0 0 20 20" fill="none" xmlns="http://www.w3.org/2000/svg">
<path fill-rule="evenodd" clip-rule="evenodd" d="M9.819 1.67991C9.30211 1.76123 8.82821 1.9418 8.47495 2.192C8.24106 2.35765 7.90966 2.69043 7.7876 2.88221C7.70904 3.00563 7.68864 3.01703 7.47775 3.05539C6.89732 3.16093 6.50256 3.49527 6.26729 4.08059C6.02556 4.682 6.02458 5.26081 6.26446 5.72925C6.32347 5.8445 6.347 5.94261 6.347 6.07352C6.347 6.24729 6.33956 6.26377 6.20121 6.3968C6.12104 6.47391 6.01368 6.6155 5.96261 6.7114C5.87513 6.87582 5.8698 6.90917 5.86993 7.29288C5.87003 7.62859 5.88359 7.7426 5.94717 7.94336C6.14312 8.5619 6.47406 8.93942 6.93961 9.07551L7.12084 9.12849L7.31807 9.48553C7.80362 10.3645 8.19423 10.8106 8.68943 11.0518C9.16215 11.2821 9.43016 11.3413 10 11.3413C10.5698 11.3413 10.8379 11.2821 11.3106 11.0518C11.8058 10.8106 12.1964 10.3645 12.6819 9.48553L12.8792 9.12849L13.0604 9.07551C13.5259 8.93942 13.8569 8.5619 14.0528 7.94336C14.1164 7.7426 14.13 7.62859 14.1301 7.29288C14.1302 6.90917 14.1249 6.87582 14.0374 6.7114C13.9863 6.6155 13.8787 6.47362 13.7981 6.39618L13.6517 6.25533L13.6348 5.62618C13.598 4.25527 13.4688 3.64683 13.0848 3.03624C12.745 2.49599 11.9489 1.99146 11.0863 1.76963C10.7776 1.69024 10.0713 1.64025 9.819 1.67991ZM7.61403 11.4298C7.47262 11.4617 4.23961 12.747 3.99818 12.8673C3.27528 13.2275 2.79621 13.8154 2.57009 14.62C2.52905 14.766 2.5172 15.0945 2.50595 16.4015C2.49354 17.8391 2.49768 18.0155 2.54623 18.1168C2.65838 18.3507 2.02484 18.3323 10 18.3323C17.9752 18.3323 17.3416 18.3507 17.4538 18.1168C17.5023 18.0155 17.5065 17.8391 17.4941 16.4015C17.4828 15.0945 17.471 14.766 17.4299 14.62C17.2038 13.8154 16.7247 13.2275 16.0018 12.8673C15.7627 12.7481 12.529 11.4628 12.386 11.43C12.237 11.3959 12.0853 11.4496 11.9973 11.5676C11.9542 11.6255 11.7364 12.1754 11.5134 12.7897C11.2904 13.4039 11.0977 13.9127 11.0853 13.9203C11.0729 13.9279 11.0289 13.8356 10.9875 13.7153L10.9122 13.4965L11.0454 13.1812C11.2216 12.764 11.2348 12.6953 11.1661 12.5522C11.0677 12.3469 11.0318 12.3404 10 12.3404C8.96817 12.3404 8.9323 12.3469 8.83387 12.5522C8.76522 12.6953 8.77842 12.764 8.95462 13.1812L9.0878 13.4965L9.01181 13.7174C8.97005 13.8388 8.92444 13.9268 8.91045 13.9128C8.89646 13.8987 8.70121 13.3833 8.47657 12.7675C8.23678 12.11 8.03554 11.6088 7.98917 11.5534C7.89821 11.4447 7.75587 11.3978 7.61403 11.4298ZM15.2295 15.2148C15.273 15.2369 15.3397 15.2964 15.3776 15.347C15.4427 15.4337 15.4466 15.4791 15.4466 16.1463C15.4466 16.7765 15.44 16.8635 15.3864 16.9444C15.2656 17.1268 15.2257 17.131 13.7249 17.1206C12.2404 17.1104 12.2694 17.1139 12.1594 16.9297C12.0834 16.8023 12.0806 15.5125 12.156 15.3682C12.2564 15.1761 12.255 15.1762 13.7682 15.1754C14.8019 15.1747 15.1704 15.1847 15.2295 15.2148Z" fill="#325FA4"/>
</svg>
