<svg width="18" height="18" viewBox="0 0 18 18" fill="none" xmlns="http://www.w3.org/2000/svg">
<g clip-path="url(#clip0_1967_22283)">
<path d="M16.4234 14.0642L16.2534 13.9142C15.7712 13.4845 15.349 12.9917 14.9984 12.4492C14.6155 11.7005 14.3861 10.8828 14.3234 10.0442V7.57422C14.3267 6.25702 13.8489 4.98396 12.9798 3.99421C12.1107 3.00445 10.91 2.36615 9.60344 2.19922V1.55422C9.60344 1.37719 9.53311 1.20741 9.40793 1.08223C9.28275 0.957044 9.11297 0.886719 8.93594 0.886719C8.75891 0.886719 8.58912 0.957044 8.46394 1.08223C8.33876 1.20741 8.26844 1.37719 8.26844 1.55422V2.20922C6.97357 2.38818 5.78742 3.03035 4.9297 4.01677C4.07198 5.0032 3.6008 6.26704 3.60344 7.57422V10.0442C3.54081 10.8828 3.31133 11.7005 2.92844 12.4492C2.58388 12.9904 2.16853 13.4831 1.69344 13.9142L1.52344 14.0642V15.4742H16.4234V14.0642Z" fill="#325FA4"/>
<path d="M7.66016 16C7.704 16.3169 7.86105 16.6073 8.1023 16.8175C8.34355 17.0276 8.6527 17.1434 8.97266 17.1434C9.29261 17.1434 9.60176 17.0276 9.84301 16.8175C10.0843 16.6073 10.2413 16.3169 10.2852 16H7.66016Z" fill="#325FA4"/>
</g>
<defs>
<clipPath id="clip0_1967_22283">
<rect width="18" height="18" fill="white"/>
</clipPath>
</defs>
</svg>
