<svg width="20" height="20" viewBox="0 0 20 20" fill="none" xmlns="http://www.w3.org/2000/svg">
<path d="M15.8333 3.33301H4.16667C3.72464 3.33301 3.30072 3.5086 2.98816 3.82116C2.67559 4.13372 2.5 4.55765 2.5 4.99967V11.6663C2.5 12.1084 2.67559 12.5323 2.98816 12.8449C3.30072 13.1574 3.72464 13.333 4.16667 13.333H15.8333C16.2754 13.333 16.6993 13.1574 17.0118 12.8449C17.3244 12.5323 17.5 12.1084 17.5 11.6663V4.99967C17.5 4.55765 17.3244 4.13372 17.0118 3.82116C16.6993 3.5086 16.2754 3.33301 15.8333 3.33301Z" fill="#325FA4"/>
<path d="M10 13.333V16.6663M10 16.6663H13.3333M10 16.6663H6.66667M10 13.333H15.8333C16.2754 13.333 16.6993 13.1574 17.0118 12.8449C17.3244 12.5323 17.5 12.1084 17.5 11.6663V4.99967C17.5 4.55765 17.3244 4.13372 17.0118 3.82116C16.6993 3.5086 16.2754 3.33301 15.8333 3.33301H4.16667C3.72464 3.33301 3.30072 3.5086 2.98816 3.82116C2.67559 4.13372 2.5 4.55765 2.5 4.99967V11.6663C2.5 12.1084 2.67559 12.5323 2.98816 12.8449C3.30072 13.1574 3.72464 13.333 4.16667 13.333H10Z" stroke="#325FA4" stroke-width="2" stroke-linecap="round" stroke-linejoin="round"/>
</svg>
