<svg width="18" height="18" viewBox="0 0 18 18" fill="none" xmlns="http://www.w3.org/2000/svg">
<g clip-path="url(#clip0_1967_22279)">
<path d="M16.2844 7.86008L14.6094 7.36008C14.4936 6.95573 14.3343 6.56512 14.1344 6.19508L14.9544 4.66008C14.9851 4.60214 14.9964 4.53582 14.9865 4.47097C14.9766 4.40612 14.946 4.34619 14.8994 4.30008L13.7044 3.10008C13.6583 3.05341 13.5983 3.02286 13.5335 3.01295C13.4686 3.00304 13.4023 3.01431 13.3444 3.04508L11.8194 3.86008C11.4457 3.65041 11.0499 3.48272 10.6394 3.36008L10.1394 1.70508C10.1182 1.64408 10.0783 1.59138 10.0253 1.55454C9.97225 1.5177 9.90891 1.49863 9.84437 1.50008H8.15437C8.08945 1.50038 8.02631 1.52139 7.97415 1.56006C7.92199 1.59873 7.88353 1.65304 7.86437 1.71508L7.36437 3.36508C6.95038 3.48707 6.55126 3.65477 6.17437 3.86508L4.67437 3.05508C4.61643 3.02431 4.55012 3.01304 4.48527 3.02295C4.42041 3.03286 4.36049 3.06341 4.31437 3.11008L3.09937 4.29508C3.05271 4.34119 3.02216 4.40112 3.01225 4.46597C3.00234 4.53082 3.01361 4.59714 3.04437 4.65508L3.85437 6.15508C3.6444 6.53037 3.47671 6.9278 3.35437 7.34008L1.69938 7.84008C1.63734 7.85924 1.58303 7.89769 1.54436 7.94985C1.50569 8.00201 1.48468 8.06515 1.48438 8.13008V9.82008C1.48468 9.885 1.50569 9.94814 1.54436 10.0003C1.58303 10.0525 1.63734 10.0909 1.69938 10.1101L3.36437 10.6101C3.48805 11.0155 3.65571 11.4061 3.86437 11.7751L3.04437 13.3451C3.01361 13.403 3.00234 13.4693 3.01225 13.5342C3.02216 13.599 3.05271 13.659 3.09937 13.7051L4.29437 14.9001C4.34049 14.9467 4.40041 14.9773 4.46527 14.9872C4.53012 14.9971 4.59643 14.9858 4.65437 14.9551L6.19937 14.1301C6.56486 14.3273 6.95038 14.4849 7.34937 14.6001L7.84937 16.2851C7.86853 16.3471 7.90699 16.4014 7.95915 16.4401C8.01131 16.4788 8.07445 16.4998 8.13937 16.5001H9.82937C9.8943 16.4998 9.95744 16.4788 10.0096 16.4401C10.0618 16.4014 10.1002 16.3471 10.1194 16.2851L10.6194 14.5951C11.015 14.4793 11.3971 14.3217 11.7594 14.1251L13.3144 14.9551C13.3723 14.9858 13.4386 14.9971 13.5035 14.9872C13.5683 14.9773 13.6283 14.9467 13.6744 14.9001L14.8694 13.7051C14.916 13.659 14.9466 13.599 14.9565 13.5342C14.9664 13.4693 14.9551 13.403 14.9244 13.3451L14.0944 11.7951C14.2931 11.4314 14.4523 11.0476 14.5694 10.6501L16.2544 10.1501C16.3164 10.1309 16.3707 10.0925 16.4094 10.0403C16.4481 9.98814 16.4691 9.925 16.4694 9.86008V8.15508C16.4723 8.0929 16.4562 8.03131 16.4231 7.97858C16.39 7.92585 16.3416 7.8845 16.2844 7.86008ZM8.99937 11.7501C8.45548 11.7501 7.92379 11.5888 7.47156 11.2866C7.01932 10.9844 6.66685 10.555 6.45871 10.0525C6.25057 9.54996 6.19611 8.99703 6.30222 8.46358C6.40832 7.93013 6.67024 7.44013 7.05483 7.05553C7.43942 6.67094 7.92943 6.40903 8.46288 6.30292C8.99632 6.19681 9.54926 6.25127 10.0518 6.45941C10.5543 6.66755 10.9837 7.02002 11.2859 7.47226C11.5881 7.92449 11.7494 8.45618 11.7494 9.00008C11.7494 9.72942 11.4596 10.4289 10.9439 10.9446C10.4282 11.4603 9.72872 11.7501 8.99937 11.7501Z" fill="#325FA4"/>
</g>
<defs>
<clipPath id="clip0_1967_22279">
<rect width="18" height="18" fill="white"/>
</clipPath>
</defs>
</svg>
