<svg width="18" height="19" viewBox="0 0 18 19" fill="none" xmlns="http://www.w3.org/2000/svg">
<path d="M15 9.5V14.25C15 14.46 14.921 14.6613 14.7803 14.8098C14.6397 14.9583 14.4489 15.0417 14.25 15.0417C14.0511 15.0417 13.8603 14.9583 13.7197 14.8098C13.579 14.6613 13.5 14.46 13.5 14.25V3.16667C13.5 2.9567 13.421 2.75534 13.2803 2.60687C13.1397 2.45841 12.9489 2.375 12.75 2.375H2.25C2.05109 2.375 1.86032 2.45841 1.71967 2.60687C1.57902 2.75534 1.5 2.9567 1.5 3.16667V14.25C1.5 15.5594 2.5095 16.625 3.75 16.625H14.25C15.4905 16.625 16.5 15.5594 16.5 14.25V9.5H15ZM10.5 8.70833V10.2917H4.5V8.70833H10.5ZM4.5 7.125V5.54167H10.5V7.125H4.5ZM10.5 11.875V13.4583H8.25V11.875H10.5Z" fill="#325FA4"/>
</svg>
