<svg width="18" height="18" viewBox="0 0 18 18" fill="none" xmlns="http://www.w3.org/2000/svg">
<g clip-path="url(#clip0_2218_11148)">
<path d="M17.9121 6.48984L16.1332 1.15312C15.9047 0.464062 15.2613 0 14.5336 0H9.5625V6.75H17.9543C17.9402 6.66211 17.9402 6.57422 17.9121 6.48984ZM8.4375 0H3.46641C2.73867 0 2.09531 0.464062 1.8668 1.15312L0.0878906 6.48984C0.0597656 6.57422 0.0597656 6.66211 0.0457031 6.75H8.4375V0ZM0 7.875V16.3125C0 17.2441 0.755859 18 1.6875 18H16.3125C17.2441 18 18 17.2441 18 16.3125V7.875H0Z" fill="#325FA4"/>
<g clip-path="url(#clip1_2218_11148)">
<path d="M7.03125 14.3063C7.10409 15.1267 7.77593 15.709 8.7987 15.7843V16.3828H9.31205V15.7843C10.4293 15.6962 11.1223 15.0765 11.1223 14.1601C11.1223 13.3775 10.6562 12.9247 9.66741 12.6697L9.31205 12.5777V10.7064C9.86428 10.7606 10.2369 11.0578 10.3309 11.5018H11.0544C10.9727 10.7143 10.2964 10.1493 9.31205 10.0867V9.49219H8.7987V10.0991C7.84434 10.2123 7.18924 10.8236 7.18924 11.6524C7.18924 12.368 7.6647 12.8745 8.49895 13.0881L8.79919 13.1678V15.1519C8.23366 15.0682 7.84434 14.7581 7.75034 14.3063H7.03125ZM8.70026 12.4182C8.18691 12.2888 7.91276 12.0122 7.91276 11.6229C7.91276 11.1582 8.25926 10.8152 8.7987 10.7231V12.4433L8.70026 12.4187V12.4182ZM9.48333 13.3396C10.1168 13.4986 10.3949 13.7624 10.3949 14.2103C10.3949 14.7502 9.98831 15.11 9.31205 15.1646V13.2968L9.48333 13.3391V13.3396Z" fill="white"/>
</g>
</g>
<defs>
<clipPath id="clip0_2218_11148">
<rect width="18" height="18" fill="white"/>
</clipPath>
<clipPath id="clip1_2218_11148">
<rect width="7.875" height="7.875" fill="white" transform="translate(5.0625 9)"/>
</clipPath>
</defs>
</svg>
