<svg width="18" height="18" viewBox="0 0 18 18" fill="none" xmlns="http://www.w3.org/2000/svg">
<path d="M8.09374 2.2479C8.35046 2.04194 8.66975 1.92969 8.99888 1.92969C9.32801 1.92969 9.6473 2.04194 9.90403 2.2479L14.8862 6.24454C15.0551 6.38008 15.1914 6.55182 15.2851 6.74709C15.3788 6.94236 15.4275 7.15618 15.4275 7.37276V14.6242C15.4275 15.0078 15.2751 15.3757 15.0038 15.647C14.7325 15.9182 14.3646 16.0706 13.981 16.0706H12.3739C11.9903 16.0706 11.6224 15.9182 11.3511 15.647C11.0798 15.3757 10.9275 15.0078 10.9275 14.6242V10.4456C10.9275 10.3177 10.8767 10.1951 10.7862 10.1047C10.6958 10.0143 10.5732 9.96347 10.4453 9.96347H7.55246C7.42458 9.96347 7.30195 10.0143 7.21153 10.1047C7.12111 10.1951 7.07031 10.3177 7.07031 10.4456V14.6242C7.07031 15.0078 6.91792 15.3757 6.64666 15.647C6.37541 15.9182 6.0075 16.0706 5.62388 16.0706H4.01674C3.63312 16.0706 3.26522 15.9182 2.99396 15.647C2.7227 15.3757 2.57031 15.0078 2.57031 14.6242V7.37276C2.57031 6.93369 2.7696 6.51904 3.1116 6.24454L8.09374 2.2479Z" fill="#325FA4"/>
</svg>
