<svg width="20" height="20" viewBox="0 0 20 20" fill="none" xmlns="http://www.w3.org/2000/svg">
<path d="M17.5006 7.5C17.5006 7.5 17.5006 8.20875 17.21 9.14062L13.9712 5.9025C13.7956 5.72663 13.5573 5.62772 13.3087 5.6275H10.4319C10.2222 5.62765 10.0187 5.69807 9.85375 5.8275L8.71812 6.71625C8.64018 6.77732 8.55097 6.82241 8.45558 6.84896C8.3602 6.87551 8.26051 6.88299 8.16223 6.87098C8.06395 6.85896 7.96901 6.82768 7.88283 6.77893C7.79665 6.73018 7.72093 6.66492 7.66 6.58687C7.53689 6.42904 7.48137 6.22883 7.50562 6.03014C7.52988 5.83144 7.63191 5.65047 7.78937 5.52688L11.6644 2.5H12.5006C13.8267 2.5 15.0985 3.02678 16.0362 3.96447C16.9738 4.90215 17.5006 6.17392 17.5006 7.5ZM4.61562 9.58125C4.55309 9.51857 4.47882 9.46884 4.39704 9.4349C4.31526 9.40097 4.2276 9.3835 4.13906 9.3835C4.05052 9.3835 3.96286 9.40097 3.88108 9.4349C3.7993 9.46884 3.72502 9.51857 3.6625 9.58125L2.6975 10.55C2.57102 10.677 2.5 10.8489 2.5 11.0281C2.5 11.2073 2.57102 11.3793 2.6975 11.5063C2.76002 11.5689 2.8343 11.6187 2.91608 11.6526C2.99786 11.6865 3.08552 11.704 3.17406 11.704C3.2626 11.704 3.35026 11.6865 3.43204 11.6526C3.51382 11.6187 3.5881 11.5689 3.65062 11.5063L4.61562 10.5375C4.74207 10.4106 4.81307 10.2388 4.81307 10.0597C4.81307 9.88057 4.74207 9.70875 4.61562 9.58188V9.58125ZM5.61312 10.8875C5.67562 10.8246 5.74992 10.7748 5.83176 10.7407C5.9136 10.7067 6.00136 10.6892 6.09 10.6892C6.17863 10.6892 6.26639 10.7067 6.34823 10.7407C6.43007 10.7748 6.50438 10.8246 6.56687 10.8875C6.69316 11.0145 6.76406 11.1862 6.76406 11.3653C6.76406 11.5444 6.69316 11.7162 6.56687 11.8431L5.60062 12.81C5.53814 12.8728 5.46387 12.9226 5.38209 12.9565C5.30031 12.9905 5.21262 13.008 5.12406 13.008C5.0355 13.008 4.94781 12.9905 4.86603 12.9565C4.78425 12.9226 4.70998 12.8728 4.6475 12.81C4.52121 12.683 4.45031 12.5113 4.45031 12.3322C4.45031 12.1531 4.52121 11.9813 4.6475 11.8544L5.6125 10.8869L5.61312 10.8875ZM8.18625 12.5106C8.12372 12.4479 8.04944 12.3982 7.96767 12.3643C7.88589 12.3303 7.79822 12.3129 7.70968 12.3129C7.62115 12.3129 7.53348 12.3303 7.4517 12.3643C7.36993 12.3982 7.29565 12.4479 7.23312 12.5106L6.26812 13.4781C6.14149 13.605 6.07037 13.777 6.07037 13.9563C6.07037 14.1355 6.14149 14.3075 6.26812 14.4344C6.33061 14.4971 6.40487 14.5469 6.48665 14.5809C6.56844 14.6149 6.65612 14.6324 6.74468 14.6324C6.83324 14.6324 6.92093 14.6149 7.00272 14.5809C7.0845 14.5469 7.15876 14.4971 7.22125 14.4344L8.18625 13.4662C8.31273 13.3393 8.38374 13.1673 8.38374 12.9881C8.38374 12.8089 8.31273 12.637 8.18625 12.51V12.5106ZM9.805 14.1331C9.7425 14.0703 9.6682 14.0204 9.58636 13.9864C9.50452 13.9523 9.41676 13.9348 9.32812 13.9348C9.23949 13.9348 9.15173 13.9523 9.06989 13.9864C8.98805 14.0204 8.91374 14.0703 8.85125 14.1331L7.88625 15.1013C7.75996 15.2282 7.68906 15.4 7.68906 15.5791C7.68906 15.7581 7.75996 15.9299 7.88625 16.0569C7.94873 16.1196 8.023 16.1694 8.10478 16.2034C8.18656 16.2374 8.27425 16.2549 8.36281 16.2549C8.45137 16.2549 8.53906 16.2374 8.62084 16.2034C8.70262 16.1694 8.77689 16.1196 8.83937 16.0569L9.80437 15.0887C9.93082 14.9619 10.0018 14.7901 10.0018 14.6109C10.0018 14.4318 9.93082 14.26 9.80437 14.1331H9.805ZM9.40062 2.68313C9.07145 2.58568 8.73252 2.52489 8.39 2.50187C8.37127 2.50085 8.35251 2.50044 8.33375 2.50062H8.12562C6.79954 2.50062 5.52777 3.02741 4.59009 3.96509C3.65241 4.90277 3.12562 6.17454 3.12562 7.50063V8.805C3.43469 8.55389 3.82597 8.42644 4.22364 8.44734C4.62132 8.46824 4.99708 8.636 5.27812 8.91813C5.52375 9.165 5.67375 9.47187 5.7275 9.79187C5.96461 9.73756 6.21094 9.7376 6.44804 9.79198C6.68514 9.84637 6.90686 9.95369 7.0966 10.1059C7.28634 10.2581 7.43918 10.4513 7.54368 10.671C7.64817 10.8907 7.70161 11.1311 7.7 11.3744C7.91323 11.3734 8.12454 11.4147 8.3217 11.4959C8.51886 11.5771 8.69795 11.6966 8.84862 11.8475C8.99928 11.9984 9.11852 12.1777 9.19943 12.375C9.28034 12.5723 9.32132 12.7836 9.32 12.9969C9.53275 12.9957 9.74361 13.0369 9.94029 13.118C10.137 13.1991 10.3156 13.3186 10.4656 13.4694C10.7677 13.7726 10.9373 14.1832 10.9373 14.6112C10.9373 15.0393 10.7677 15.4499 10.4656 15.7531L10.325 15.8944L11.1212 16.6844C11.2474 16.8088 11.4175 16.8785 11.5947 16.8785C11.7719 16.8785 11.9419 16.8088 12.0681 16.6844C12.3269 16.4281 12.3275 16.0131 12.0694 15.7562C11.9807 15.6683 11.9306 15.5488 11.93 15.4239C11.9295 15.299 11.9786 15.179 12.0666 15.0903C12.1545 15.0016 12.2741 14.9515 12.3989 14.951C12.5238 14.9505 12.6438 14.9996 12.7325 15.0875C12.8587 15.2119 13.0287 15.2816 13.2059 15.2816C13.3831 15.2816 13.5532 15.2119 13.6794 15.0875C13.7408 15.0268 13.7896 14.9545 13.823 14.8748C13.8563 14.7951 13.8735 14.7096 13.8735 14.6233C13.8736 14.5369 13.8565 14.4513 13.8233 14.3716C13.7901 14.2919 13.7414 14.2195 13.68 14.1587C13.5969 14.0697 13.5515 13.9519 13.5534 13.8301C13.5552 13.7083 13.6042 13.592 13.69 13.5055C13.7757 13.419 13.8916 13.3691 14.0134 13.3662C14.1352 13.3633 14.2534 13.4077 14.3431 13.49C14.4694 13.614 14.6395 13.6834 14.8165 13.6832C14.9935 13.683 15.1634 13.6131 15.2894 13.4888C15.5544 13.2263 15.5531 12.8 15.3 12.5481L15.2981 12.5469L13.89 11.1381C13.8072 11.0493 13.7621 10.9317 13.7643 10.8103C13.7664 10.6889 13.8156 10.573 13.9015 10.4871C13.9874 10.4012 14.1032 10.352 14.2247 10.3499C14.3461 10.3477 14.4636 10.3928 14.5525 10.4756L16.2 12.1212C16.5294 12.4481 17.0725 12.4513 17.3581 12.1681C17.6425 11.8862 17.64 11.3512 17.3137 11.0269L17.3125 11.0256L13.165 6.87875H10.54L9.48875 7.70125C9.28153 7.8634 9.04439 7.98314 8.79088 8.05362C8.53737 8.12411 8.27246 8.14395 8.01128 8.11203C7.7501 8.08011 7.49777 7.99704 7.2687 7.86758C7.03963 7.73811 6.83831 7.56479 6.67625 7.3575C6.34879 6.93853 6.20105 6.40669 6.26551 5.87885C6.32997 5.35102 6.60134 4.87036 7.02 4.5425L9.4 2.68375L9.40062 2.68313Z" fill="#325FA4"/>
</svg>
