<svg width="20" height="20" viewBox="0 0 20 20" fill="none" xmlns="http://www.w3.org/2000/svg">
<path d="M10.0013 18.3327C14.6037 18.3327 18.3346 14.6017 18.3346 9.99935C18.3346 5.39698 14.6037 1.66602 10.0013 1.66602C5.39893 1.66602 1.66797 5.39698 1.66797 9.99935C1.66797 14.6017 5.39893 18.3327 10.0013 18.3327Z" fill="#325FA4" stroke="#325FA4" stroke-width="1.66667" stroke-linecap="round" stroke-linejoin="round"/>
<path d="M9.34586 6.38115V5.55469H10.3641V6.39534C10.5031 6.40007 10.6434 6.40834 10.785 6.42017C10.9267 6.42962 11.063 6.44618 11.1939 6.46982C11.3276 6.49111 11.4532 6.5183 11.5708 6.55141C11.691 6.58451 11.7979 6.62471 11.8915 6.67201C12.0358 6.74768 12.1734 6.83753 12.3044 6.94158C12.438 7.04563 12.5556 7.16386 12.6571 7.29629C12.7587 7.42871 12.8389 7.57532 12.8977 7.73612C12.9591 7.89455 12.9899 8.06836 12.9899 8.25753C12.9899 8.41833 12.9685 8.56967 12.9257 8.71156C12.883 8.85107 12.8228 8.98113 12.7453 9.10173C12.6678 9.21997 12.5756 9.32756 12.4687 9.42451C12.3645 9.52146 12.2482 9.60659 12.12 9.6799C12.299 9.75557 12.4634 9.85016 12.613 9.96366C12.7627 10.0748 12.891 10.2013 12.9979 10.3432C13.1048 10.4827 13.1876 10.6341 13.2464 10.7972C13.3052 10.9604 13.3346 11.1306 13.3346 11.308C13.3346 11.4877 13.3079 11.6662 13.2545 11.8436C13.201 12.0186 13.1208 12.1865 13.0139 12.3473C12.9097 12.5081 12.7787 12.6571 12.6211 12.7942C12.4661 12.9314 12.2857 13.0508 12.0799 13.1525C11.8768 13.2518 11.6496 13.3298 11.3984 13.3866C11.1472 13.4433 10.8732 13.4717 10.5766 13.4717H10.3641V14.4436H9.34586V13.4717H6.66797V6.38115H9.34586ZM11.5948 11.2796C11.5948 11.1354 11.5601 11.0112 11.4906 10.9072C11.4211 10.8008 11.3289 10.7121 11.214 10.6411C11.0991 10.5702 10.9668 10.517 10.8171 10.4815C10.6701 10.4437 10.5191 10.4189 10.3641 10.407V12.2373H10.4282C10.618 12.2373 10.785 12.2137 10.9293 12.1664C11.0763 12.1167 11.1979 12.0493 11.2941 11.9642C11.393 11.8791 11.4679 11.7786 11.5186 11.6627C11.5694 11.5445 11.5948 11.4168 11.5948 11.2796ZM9.34586 12.2373V10.407H8.4078V12.2373H9.34586ZM9.34586 9.27199V7.61552H8.4078V9.27199H9.34586ZM11.2661 8.43134C11.2661 8.29655 11.242 8.18305 11.1939 8.09082C11.1485 7.99624 11.0857 7.91938 11.0055 7.86027C10.9253 7.79878 10.8305 7.75149 10.7209 7.71838C10.6113 7.68528 10.4924 7.66163 10.3641 7.64744V9.24361C10.6848 9.19868 10.9146 9.10528 11.0536 8.9634C11.1953 8.81915 11.2661 8.6418 11.2661 8.43134Z" fill="#E6F0FF"/>
</svg>
