<svg width="29" height="30" viewBox="0 0 29 30" fill="none" xmlns="http://www.w3.org/2000/svg">
<path fill-rule="evenodd" clip-rule="evenodd" d="M17.2681 3.00952C17.006 2.97114 16.7427 3.05029 16.5332 3.22057C16.3179 3.39325 16.1834 3.64268 16.1541 3.92209C16.0921 4.4869 16.4911 4.99775 17.0434 5.06131C20.8524 5.49541 23.813 8.52573 24.2412 12.4278C24.2986 12.9507 24.728 13.3452 25.2406 13.3452C25.2792 13.3452 25.3166 13.3428 25.3553 13.338C25.6232 13.308 25.862 13.1725 26.0305 12.9567C26.1978 12.7408 26.2739 12.4722 26.2434 12.1976C25.7098 7.32895 22.0202 3.55034 17.2681 3.00952ZM17.3413 7.18793C16.7819 7.0824 16.2682 7.44695 16.1617 8.00457C16.0552 8.56218 16.4133 9.10661 16.9574 9.21573C18.5957 9.54191 19.8607 10.837 20.1813 12.5159V12.5171C20.2726 13.0003 20.6892 13.3517 21.1689 13.3517C21.2333 13.3517 21.2977 13.3457 21.3632 13.3337C21.9073 13.2222 22.2654 12.679 22.1589 12.1201C21.6803 9.61266 19.7905 7.67599 17.3413 7.18793ZM19.2001 18.7087C19.7306 18.3963 20.3297 18.0435 21.0855 18.2076C21.7701 18.3551 24.1034 20.2894 24.7423 20.9597C25.1613 21.3986 25.3941 21.8519 25.4304 22.3052C25.4936 24.0836 23.1275 26.1138 22.6968 26.3668C22.1246 26.7877 21.4588 27 20.711 27C19.9469 27 19.095 26.7782 18.1659 26.3357C13.1247 24.1867 5.42375 16.4772 3.38763 11.3687C2.54275 9.46684 2.5369 7.89832 3.37358 6.71953C3.70709 6.16671 5.60864 3.85589 7.31125 3.92904C7.76412 3.96862 8.20411 4.20605 8.6359 4.63776C9.28887 5.29131 11.1354 7.68127 11.2782 8.38279C11.4362 9.16225 11.0898 9.78222 10.782 10.3267C10.7164 10.4437 10.6279 10.5826 10.531 10.7347C10.1633 11.3122 9.67385 12.0808 9.84705 12.5715C11.0886 15.6846 13.9567 18.4007 17.0062 19.6766C17.4778 19.8517 18.23 19.3482 18.7936 18.971C18.9405 18.8727 19.0745 18.783 19.1875 18.7161L19.2001 18.7087Z" fill="#325FA4"/>
</svg>
