<svg width="96" height="96" viewBox="0 0 96 96" fill="none" xmlns="http://www.w3.org/2000/svg">
<rect width="96" height="96" rx="48" fill="#FFDFDE"/>
<mask id="mask0_668_37940" style="mask-type:alpha" maskUnits="userSpaceOnUse" x="30" y="32" width="34" height="32">
<path d="M43.8333 44.6667C44.5994 44.6667 45.3579 44.5158 46.0657 44.2226C46.7734 43.9295 47.4164 43.4998 47.9581 42.9581C48.4998 42.4164 48.9295 41.7734 49.2226 41.0657C49.5158 40.3579 49.6667 39.5994 49.6667 38.8333C49.6667 38.0673 49.5158 37.3087 49.2226 36.601C48.9295 35.8933 48.4998 35.2502 47.9581 34.7085C47.4164 34.1669 46.7734 33.7372 46.0657 33.444C45.3579 33.1509 44.5994 33 43.8333 33C42.2862 33 40.8025 33.6146 39.7085 34.7085C38.6146 35.8025 38 37.2862 38 38.8333C38 40.3804 38.6146 41.8642 39.7085 42.9581C40.8025 44.0521 42.2862 44.6667 43.8333 44.6667Z" fill="white" stroke="white" stroke-width="1.66667" stroke-linecap="round" stroke-linejoin="round"/>
<path d="M62.9987 40.5L56.332 47.1667M56.332 40.5L62.9987 47.1667" stroke="white" stroke-width="1.66667" stroke-linecap="round" stroke-linejoin="round"/>
<path d="M31.332 61.9987V62.9987H56.332V61.9987C56.332 58.2654 56.332 56.3987 55.6054 54.972C54.9662 53.7177 53.9464 52.6978 52.692 52.0587C51.2654 51.332 49.3987 51.332 45.6654 51.332H41.9987C38.2654 51.332 36.3987 51.332 34.972 52.0587C33.7177 52.6978 32.6978 53.7177 32.0587 54.972C31.332 56.3987 31.332 58.2654 31.332 61.9987Z" fill="white" stroke="white" stroke-width="1.66667" stroke-linecap="round" stroke-linejoin="round"/>
</mask>
<g mask="url(#mask0_668_37940)">
<path d="M28 28H68V68H28V28Z" fill="#C42A27"/>
</g>
</svg>
