<svg width="32" height="32" viewBox="0 0 32 32" fill="none" xmlns="http://www.w3.org/2000/svg">
<path d="M27.8073 2.16715C28.6168 2.62081 29.2131 3.37741 29.4649 4.27058C29.7168 5.16376 29.6036 6.1204 29.1503 6.93015L17.6413 27.4841C17.3497 28.0047 16.9455 28.4534 16.4581 28.7975C15.9706 29.1416 15.4124 29.3722 14.8243 29.4726C14.2362 29.573 13.6331 29.5405 13.0591 29.3776C12.4852 29.2147 11.955 28.9255 11.5073 28.5311L2.78427 20.8471C2.08768 20.2336 1.66337 19.3684 1.60467 18.442C1.54597 17.5155 1.8577 16.6037 2.47127 15.9071C3.08485 15.2106 3.95002 14.7862 4.87645 14.7275C5.80288 14.6688 6.71468 14.9806 7.41127 15.5941L12.8843 20.4151C12.9402 20.4643 13.0063 20.5004 13.078 20.5208C13.1496 20.5411 13.2249 20.5452 13.2983 20.5328C13.3717 20.5203 13.4414 20.4916 13.5023 20.4488C13.5632 20.4059 13.6137 20.35 13.6503 20.2851L23.0433 3.51015C23.4969 2.70032 24.2537 2.10387 25.1471 1.85201C26.0406 1.60015 26.9974 1.71351 27.8073 2.16715Z" fill="#325FA4"/>
</svg>
