<svg width="25" height="24" viewBox="0 0 25 24" fill="none" xmlns="http://www.w3.org/2000/svg">
<path d="M2.7209 12.7132C2.58472 12.4975 2.51662 12.3897 2.47851 12.2234C2.44987 12.0985 2.44987 11.9015 2.47851 11.7766C2.51662 11.6103 2.58472 11.5025 2.7209 11.2868C3.84631 9.50484 7.19618 5 12.3012 5C17.4062 5 20.7561 9.50484 21.8815 11.2868C22.0177 11.5025 22.0857 11.6103 22.1239 11.7766C22.1525 11.9015 22.1525 12.0985 22.1239 12.2234C22.0857 12.3897 22.0177 12.4975 21.8815 12.7132C20.7561 14.4952 17.4062 19 12.3012 19C7.19618 19 3.84631 14.4952 2.7209 12.7132Z" stroke="#8B8B8B" stroke-width="1.5" stroke-linecap="round" stroke-linejoin="round"/>
<path d="M12.3012 15C13.958 15 15.3012 13.6569 15.3012 12C15.3012 10.3431 13.958 9 12.3012 9C10.6443 9 9.30119 10.3431 9.30119 12C9.30119 13.6569 10.6443 15 12.3012 15Z" stroke="#8B8B8B" stroke-width="1.5" stroke-linecap="round" stroke-linejoin="round"/>
</svg>
