<svg width="48" height="48" viewBox="0 0 48 48" fill="none" xmlns="http://www.w3.org/2000/svg">
<path d="M42.0015 18C42.0015 18 42.0015 19.701 41.304 21.9375L33.531 14.166C33.1094 13.7439 32.5375 13.5065 31.941 13.506H25.0365C24.5333 13.5064 24.0448 13.6754 23.649 13.986L20.9235 16.119C20.7364 16.2656 20.5223 16.3738 20.2934 16.4375C20.0645 16.5012 19.8252 16.5192 19.5894 16.4903C19.3535 16.4615 19.1256 16.3864 18.9188 16.2694C18.712 16.1524 18.5302 15.9958 18.384 15.8085C18.0885 15.4297 17.9553 14.9492 18.0135 14.4723C18.0717 13.9955 18.3166 13.5611 18.6945 13.2645L27.9945 6H30.0015C33.1841 6 36.2363 7.26428 38.4868 9.51472C40.7372 11.7652 42.0015 14.8174 42.0015 18ZM11.0775 22.995C10.9274 22.8446 10.7492 22.7252 10.5529 22.6438C10.3566 22.5623 10.1462 22.5204 9.93374 22.5204C9.72125 22.5204 9.51085 22.5623 9.31459 22.6438C9.11833 22.7252 8.94006 22.8446 8.78999 22.995L6.47399 25.32C6.17044 25.6247 6 26.0374 6 26.4675C6 26.8976 6.17044 27.3103 6.47399 27.615C6.62406 27.7654 6.80233 27.8848 6.99859 27.9662C7.19485 28.0477 7.40525 28.0896 7.61774 28.0896C7.83023 28.0896 8.04063 28.0477 8.2369 27.9662C8.43316 27.8848 8.61143 27.7654 8.76149 27.615L11.0775 25.29C11.381 24.9855 11.5514 24.5731 11.5514 24.1433C11.5514 23.7134 11.381 23.301 11.0775 22.9965V22.995ZM13.4715 26.13C13.6215 25.9792 13.7998 25.8594 13.9962 25.7778C14.1926 25.6961 14.4033 25.654 14.616 25.654C14.8287 25.654 15.0393 25.6961 15.2358 25.7778C15.4322 25.8594 15.6105 25.9792 15.7605 26.13C16.0636 26.4347 16.2337 26.847 16.2337 27.2767C16.2337 27.7065 16.0636 28.1188 15.7605 28.4235L13.4415 30.744C13.2915 30.8946 13.1133 31.0141 12.917 31.0957C12.7207 31.1772 12.5103 31.2192 12.2977 31.2192C12.0852 31.2192 11.8747 31.1772 11.6785 31.0957C11.4822 31.0141 11.304 30.8946 11.154 30.744C10.8509 30.4393 10.6807 30.027 10.6807 29.5973C10.6807 29.1675 10.8509 28.7552 11.154 28.4505L13.47 26.1285L13.4715 26.13ZM19.647 30.0255C19.4969 29.8751 19.3187 29.7557 19.1224 29.6743C18.9261 29.5928 18.7157 29.5509 18.5032 29.5509C18.2908 29.5509 18.0804 29.5928 17.8841 29.6743C17.6878 29.7557 17.5096 29.8751 17.3595 30.0255L15.0435 32.3475C14.7396 32.6521 14.5689 33.0647 14.5689 33.495C14.5689 33.9253 14.7396 34.3379 15.0435 34.6425C15.1935 34.7931 15.3717 34.9126 15.568 34.9942C15.7642 35.0757 15.9747 35.1177 16.1872 35.1177C16.3998 35.1177 16.6102 35.0757 16.8065 34.9942C17.0028 34.9126 17.181 34.7931 17.331 34.6425L19.647 32.319C19.9505 32.0142 20.121 31.6016 20.121 31.1715C20.121 30.7414 19.9505 30.3288 19.647 30.024V30.0255ZM23.532 33.9195C23.382 33.7687 23.2037 33.649 23.0073 33.5673C22.8108 33.4856 22.6002 33.4435 22.3875 33.4435C22.1748 33.4435 21.9641 33.4856 21.7677 33.5673C21.5713 33.649 21.393 33.7687 21.243 33.9195L18.927 36.243C18.6239 36.5477 18.4537 36.96 18.4537 37.3898C18.4537 37.8195 18.6239 38.2318 18.927 38.5365C19.077 38.6871 19.2552 38.8066 19.4515 38.8882C19.6477 38.9697 19.8582 39.0117 20.0707 39.0117C20.2833 39.0117 20.4937 38.9697 20.69 38.8882C20.8863 38.8066 21.0645 38.6871 21.2145 38.5365L23.5305 36.213C23.834 35.9085 24.0044 35.4961 24.0044 35.0662C24.0044 34.6364 23.834 34.224 23.5305 33.9195H23.532ZM22.5615 6.4395C21.7715 6.20563 20.958 6.05974 20.136 6.0045C20.091 6.00205 20.046 6.00105 20.001 6.0015H19.5015C16.3189 6.0015 13.2666 7.26578 11.0162 9.51622C8.76578 11.7667 7.50149 14.8189 7.50149 18.0015V21.132C8.24326 20.5293 9.18232 20.2235 10.1367 20.2736C11.0912 20.3238 11.993 20.7264 12.6675 21.4035C13.257 21.996 13.617 22.7325 13.746 23.5005C14.3151 23.3701 14.9063 23.3702 15.4753 23.5008C16.0443 23.6313 16.5765 23.8889 17.0318 24.2542C17.4872 24.6195 17.854 25.0832 18.1048 25.6104C18.3556 26.1376 18.4839 26.7147 18.48 27.2985C18.9917 27.2961 19.4989 27.3952 19.9721 27.5902C20.4453 27.7851 20.8751 28.0719 21.2367 28.4341C21.5983 28.7962 21.8844 29.2265 22.0786 29.7C22.2728 30.1735 22.3712 30.6807 22.368 31.1925C22.8786 31.1897 23.3847 31.2885 23.8567 31.4832C24.3287 31.6779 24.7573 31.9646 25.1175 32.3265C25.8424 33.0543 26.2494 34.0397 26.2494 35.067C26.2494 36.0943 25.8424 37.0797 25.1175 37.8075L24.78 38.1465L26.691 40.0425C26.9938 40.341 27.402 40.5084 27.8272 40.5084C28.2525 40.5084 28.6607 40.341 28.9635 40.0425C29.5845 39.4275 29.586 38.4315 28.9665 37.815C28.7537 37.604 28.6334 37.317 28.6321 37.0173C28.6308 36.7175 28.7487 36.4296 28.9597 36.2168C29.1708 36.0039 29.4577 35.8836 29.7575 35.8824C30.0572 35.8811 30.3452 35.999 30.558 36.21C30.8608 36.5085 31.269 36.6759 31.6942 36.6759C32.1195 36.6759 32.5277 36.5085 32.8305 36.21C32.978 36.0643 33.0951 35.8908 33.1751 35.6996C33.2551 35.5083 33.2964 35.3031 33.2965 35.0958C33.2966 34.8885 33.2557 34.6832 33.1759 34.4919C33.0962 34.3005 32.9793 34.1269 32.832 33.981C32.6326 33.7672 32.5237 33.4846 32.5281 33.1923C32.5326 32.8999 32.65 32.6207 32.8559 32.4131C33.0617 32.2055 33.3399 32.0857 33.6322 32.0788C33.9245 32.0719 34.2081 32.1784 34.4235 32.376C34.7267 32.6737 35.1347 32.8402 35.5596 32.8397C35.9845 32.8391 36.3921 32.6715 36.6945 32.373C37.3305 31.743 37.3275 30.72 36.72 30.1155L36.7155 30.1125L33.336 26.7315C33.1373 26.5182 33.0291 26.2362 33.0342 25.9447C33.0394 25.6533 33.1574 25.3752 33.3636 25.1691C33.5697 24.9629 33.8478 24.8449 34.1392 24.8397C34.4307 24.8346 34.7127 24.9428 34.926 25.1415L38.88 29.091C39.6705 29.8755 40.974 29.883 41.6595 29.2035C42.342 28.527 42.336 27.243 41.553 26.4645L41.55 26.4615L31.596 16.509H25.296L22.773 18.483C22.2757 18.8722 21.7065 19.1595 21.0981 19.3287C20.4897 19.4979 19.8539 19.5455 19.2271 19.4689C18.6002 19.3923 17.9947 19.1929 17.4449 18.8822C16.8951 18.5715 16.412 18.1555 16.023 17.658C15.2371 16.6525 14.8825 15.3761 15.0372 14.1093C15.1919 12.8424 15.8432 11.6889 16.848 10.902L22.56 6.441L22.5615 6.4395Z" fill="#325FA4"/>
</svg>
