<svg width="24" height="24" viewBox="0 0 24 24" fill="none" xmlns="http://www.w3.org/2000/svg">
<path d="M5.27942 5.27994L5.27957 5.27979C7.06194 3.49742 9.47936 2.49609 12 2.49609C14.5207 2.49609 16.9381 3.49742 18.7205 5.27979C20.5028 7.06217 21.5042 9.47958 21.5042 12.0002C21.5042 14.5209 20.5028 16.9383 18.7205 18.7207L18.7197 18.7215C17.8392 19.6059 16.7922 20.3068 15.639 20.7838C14.4859 21.2608 13.2495 21.5043 12.0016 21.5002L11.9997 21.5002C10.12 21.5013 8.28218 20.9448 6.71888 19.901C5.15559 18.8572 3.93709 17.3731 3.2176 15.6365C2.49811 13.8999 2.30997 11.9889 2.67699 10.1454C3.04401 8.3018 3.9497 6.60856 5.27942 5.27994ZM3.50001 12.1722H3.49998L3.50004 12.1776C3.52419 14.4239 4.43658 16.5693 6.0378 18.1449C7.63901 19.7205 9.79885 20.5982 12.0452 20.5861C14.2916 20.574 16.4419 19.6732 18.0261 18.0805C19.6103 16.4877 20.4995 14.3327 20.4995 12.0862C20.4995 9.83982 19.6103 7.68473 18.0261 6.09201C16.4419 4.49928 14.2916 3.59844 12.0452 3.58636C9.79885 3.57429 7.63901 4.45197 6.0378 6.02757C4.43658 7.60317 3.52419 9.74857 3.50004 11.9949H3.50001V12.0002V12.1722ZM9.40951 15.2936L8.70619 14.5903L10.9435 12.3539L11.2972 12.0003L10.9436 11.6467L8.70712 9.41024L9.41001 8.70735L11.6465 10.9438L12 11.2973L12.3536 10.9438L14.59 8.70735L15.2929 9.41024L13.0565 11.6467L12.7029 12.0002L13.0565 12.3538L15.2932 14.5905L14.5916 15.293L12.3534 13.0566L11.9999 12.7033L11.6465 13.0567L9.40951 15.2936Z" fill="black" stroke="#325FA4"/>
</svg>
