<svg width="96" height="96" viewBox="0 0 96 96" fill="none" xmlns="http://www.w3.org/2000/svg">
<rect width="96" height="96" rx="48" fill="#FFDDDC"/>
<path d="M44.7172 30.0403C46.1309 27.4345 49.8717 27.4345 51.2829 30.0403L67.4607 59.912C67.7676 60.4802 67.922 61.1183 67.9086 61.764C67.8952 62.4097 67.7145 63.0408 67.3842 63.5958C67.054 64.1508 66.5854 64.6106 66.0242 64.9303C65.4631 65.25 64.8286 65.4187 64.1828 65.4199H31.8173C31.1703 65.4201 30.5344 65.2521 29.9719 64.9325C29.4094 64.6129 28.9397 64.1525 28.6087 63.5967C28.2777 63.0408 28.0968 62.4085 28.0838 61.7617C28.0707 61.1148 28.226 60.4757 28.5344 59.907L44.7172 30.0403ZM49.2445 41.7754C49.2445 41.4454 49.1134 41.1289 48.88 40.8955C48.6466 40.6621 48.3301 40.531 48 40.531C47.67 40.531 47.3535 40.6621 47.1201 40.8955C46.8867 41.1289 46.7556 41.4454 46.7556 41.7754V51.731C46.7556 52.0611 46.8867 52.3776 47.1201 52.611C47.3535 52.8443 47.67 52.9754 48 52.9754C48.3301 52.9754 48.6466 52.8443 48.88 52.611C49.1134 52.3776 49.2445 52.0611 49.2445 51.731V41.7754ZM49.8667 57.331C49.8667 56.8359 49.67 56.3611 49.32 56.0111C48.9699 55.661 48.4951 55.4643 48 55.4643C47.505 55.4643 47.0302 55.661 46.6801 56.0111C46.33 56.3611 46.1334 56.8359 46.1334 57.331C46.1334 57.8261 46.33 58.3009 46.6801 58.6509C47.0302 59.001 47.505 59.1977 48 59.1977C48.4951 59.1977 48.9699 59.001 49.32 58.6509C49.67 58.3009 49.8667 57.8261 49.8667 57.331Z" fill="#C42A27"/>
</svg>
