<svg width="13" height="8" viewBox="0 0 13 8" fill="none" xmlns="http://www.w3.org/2000/svg">
<path d="M0.874966 6.85108C1.08575 7.06061 1.37088 7.17822 1.66809 7.17822C1.9653 7.17822 2.25043 7.06061 2.46122 6.85108L6.49997 2.86858L10.4825 6.85108C10.6932 7.06061 10.9784 7.17822 11.2756 7.17822C11.5728 7.17822 11.8579 7.06061 12.0687 6.85108C12.1742 6.7465 12.2579 6.62207 12.315 6.48498C12.3721 6.34789 12.4015 6.20084 12.4015 6.05233C12.4015 5.90382 12.3721 5.75677 12.315 5.61968C12.2579 5.48259 12.1742 5.35816 12.0687 5.25358L7.29872 0.483582C7.19413 0.378137 7.06971 0.294444 6.93262 0.237329C6.79552 0.180214 6.64848 0.150808 6.49997 0.150808C6.35145 0.150808 6.20441 0.180214 6.06732 0.237329C5.93023 0.294444 5.8058 0.378137 5.70122 0.483581L0.874967 5.25358C0.769522 5.35816 0.685829 5.48259 0.628714 5.61968C0.571599 5.75677 0.542192 5.90382 0.542192 6.05233C0.542192 6.20084 0.571599 6.34789 0.628714 6.48498C0.685829 6.62207 0.769522 6.7465 0.874966 6.85108Z" fill="#396BB4"/>
</svg>
