<svg width="28" height="28" viewBox="0 0 28 28" fill="none" xmlns="http://www.w3.org/2000/svg">
<path d="M13.9993 0.666687C6.65268 0.666687 0.666016 6.65335 0.666016 14C0.666016 21.3467 6.65268 27.3334 13.9993 27.3334C21.346 27.3334 27.3327 21.3467 27.3327 14C27.3327 6.65335 21.346 0.666687 13.9993 0.666687ZM20.3727 10.9334L12.8127 18.4934C12.626 18.68 12.3727 18.7867 12.106 18.7867C11.8393 18.7867 11.586 18.68 11.3993 18.4934L7.62602 14.72C7.23935 14.3334 7.23935 13.6934 7.62602 13.3067C8.01268 12.92 8.65268 12.92 9.03935 13.3067L12.106 16.3734L18.9594 9.52002C19.346 9.13335 19.986 9.13335 20.3727 9.52002C20.7593 9.90669 20.7593 10.5334 20.3727 10.9334Z" fill="#449C43"/>
</svg>
