<svg width="28" height="30" viewBox="0 0 28 30" fill="none" xmlns="http://www.w3.org/2000/svg">
<path fill-rule="evenodd" clip-rule="evenodd" d="M13.4806 4.03424C13.1062 4.14463 12.8866 4.28275 12.1024 4.90142C11.1151 5.6803 10.9182 5.80641 10.5561 5.89201C10.396 5.92983 9.83175 5.98496 9.30236 6.0144C7.91605 6.09163 7.57129 6.20523 7.04526 6.75835C6.64389 7.18037 6.53989 7.44214 6.24754 8.76656C5.89902 10.3452 5.97418 10.2171 4.53187 11.6907C3.87188 12.3651 3.70326 12.6228 3.57227 13.1575C3.40733 13.8308 3.4996 14.2376 4.11256 15.5402C4.37524 16.0983 4.62169 16.6679 4.66024 16.8059C4.75592 17.1485 4.74809 17.5091 4.62121 18.5983C4.56162 19.11 4.51258 19.6447 4.51223 19.7864C4.51022 20.5943 4.98754 21.4128 5.68656 21.8001C5.84643 21.8887 6.31194 22.1115 6.72102 22.2954C7.55567 22.6705 7.77189 22.7929 8.01843 23.0297C8.11236 23.1199 8.47051 23.6461 8.81431 24.199C9.60533 25.471 9.89541 25.7593 10.5727 25.9469C11.1123 26.0964 11.3709 26.0556 12.715 25.6093C13.4813 25.3547 13.5161 25.3477 14.0056 25.3485C14.5028 25.3493 14.5202 25.3531 15.4713 25.6659C16.7829 26.0973 17.1866 26.1185 17.8394 25.7902C18.2751 25.5712 18.5429 25.2558 19.2252 24.1587C20.01 22.8968 20.0458 22.8638 21.1974 22.3407C21.6575 22.1317 22.1648 21.8883 22.3247 21.7999C22.9341 21.4627 23.372 20.8094 23.4691 20.0924C23.5103 19.7882 23.5005 19.592 23.3974 18.6575C23.269 17.4933 23.256 17.168 23.3266 16.8771C23.3514 16.7747 23.6073 16.1781 23.8952 15.5513C24.3194 14.6278 24.4287 14.3477 24.4712 14.0749C24.5453 13.599 24.4767 13.1368 24.2635 12.6743C24.119 12.361 24.025 12.2426 23.4823 11.6904C22.0468 10.2299 22.1129 10.3411 21.7717 8.81363C21.6421 8.23372 21.5049 7.6659 21.4666 7.55188C21.3047 7.06873 20.8639 6.54761 20.4262 6.32171C20.052 6.12861 19.7246 6.06985 18.7089 6.01352C17.7111 5.95816 17.3155 5.89345 17.0309 5.7391C16.9392 5.68932 16.4917 5.35368 16.0365 4.9932C15.1718 4.30843 14.9154 4.14594 14.5249 4.03545C14.2417 3.9553 13.7503 3.95474 13.4806 4.03424ZM14.961 7.46154C15.463 7.52536 16.225 7.73656 16.6964 7.94251C19.0644 8.97729 20.7477 11.2856 21.0937 13.9724C21.1585 14.4753 21.1585 15.5108 21.0937 16.0136C20.7699 18.5288 19.2761 20.7242 17.1396 21.8251C16.29 22.2629 15.4499 22.5025 14.5342 22.5681C11.6067 22.778 8.94075 21.1748 7.61574 18.4077C6.76547 16.6319 6.62621 14.3376 7.25479 12.4596C7.65384 11.2672 8.41459 10.0788 9.29317 9.27539C10.9 7.80597 12.8249 7.18996 14.961 7.46154ZM13.5244 8.15892C10.5387 8.38914 8.11564 10.7604 7.63494 13.9225C7.5488 14.4895 7.5488 15.4966 7.63494 16.0635C8.0893 19.0523 10.2779 21.342 13.1045 21.7857C13.5851 21.8611 14.5159 21.8519 15.0124 21.7667C17.9856 21.2566 20.216 18.6754 20.4322 15.4945C20.7168 11.3064 17.4666 7.85496 13.5244 8.15892ZM17.3964 12.0329C17.6581 12.1636 17.7347 12.249 17.8594 12.5488C17.9681 12.81 17.9577 13.1567 17.8337 13.4118C17.715 13.6559 13.7508 17.8757 13.5462 17.9757C13.3468 18.0732 13.1006 18.0859 12.8462 18.0118C12.7012 17.9696 12.4663 17.7443 11.4764 16.6979C10.8192 16.0033 10.2426 15.3684 10.1949 15.287C10.0851 15.0992 10.0448 14.7449 10.1059 14.5046C10.169 14.257 10.3923 13.9776 10.6118 13.8716C10.8305 13.7659 11.1961 13.7586 11.4142 13.8555C11.5147 13.9002 11.8765 14.2451 12.3675 14.7643L13.1587 15.6011L14.789 13.8509C15.9427 12.6124 16.4726 12.075 16.6016 12.0128C16.85 11.8928 17.1301 11.8999 17.3964 12.0329Z" fill="#325FA4"/>
</svg>
