<svg width="45" height="40" viewBox="0 0 45 40" fill="none" xmlns="http://www.w3.org/2000/svg">
<path d="M24.375 1.875V2.69531C24.875 2.78906 25.3594 2.90625 25.7969 3.02344C26.7969 3.28906 27.3906 4.32031 27.125 5.32031C26.8594 6.32031 25.8281 6.91406 24.8281 6.64844C23.9766 6.42188 23.1797 6.26562 22.4688 6.25781C21.8984 6.25 21.3203 6.39062 20.9531 6.60156C20.7891 6.70312 20.7109 6.78906 20.6797 6.83594C20.6562 6.875 20.625 6.92969 20.625 7.05469V7.10156C20.6406 7.11719 20.6953 7.19531 20.8828 7.30469C21.3359 7.57812 22.0078 7.78906 23.0234 8.09375L23.0938 8.11719C23.9609 8.375 25.1172 8.72656 26.0547 9.3125C27.125 9.98438 28.0938 11.1016 28.1172 12.8203C28.1406 14.5781 27.2266 15.8594 26.0312 16.6094C25.5078 16.9297 24.9453 17.1562 24.3672 17.2969V18.125C24.3672 19.1641 23.5312 20 22.4922 20C21.4531 20 20.6172 19.1641 20.6172 18.125V17.2344C19.875 17.0547 19.1953 16.8203 18.6172 16.625C18.4531 16.5703 18.2969 16.5156 18.1484 16.4688C17.1641 16.1406 16.6328 15.0781 16.9609 14.0938C17.2891 13.1094 18.3516 12.5781 19.3359 12.9062C19.5391 12.9766 19.7266 13.0391 19.9062 13.1016C20.9688 13.4609 21.7344 13.7188 22.5547 13.75C23.1797 13.7734 23.7344 13.625 24.0547 13.4297C24.2031 13.3359 24.2734 13.2578 24.3047 13.2031C24.3359 13.1562 24.375 13.0625 24.3672 12.8828V12.8672C24.3672 12.7891 24.3672 12.7031 24.0547 12.5078C23.6094 12.2266 22.9375 12.0078 21.9375 11.7031L21.7891 11.6562C20.9453 11.4062 19.8359 11.0703 18.9453 10.5312C17.8906 9.89844 16.875 8.8125 16.8672 7.08594C16.8594 5.29688 17.875 4.07031 19.0312 3.38281C19.5312 3.08594 20.0703 2.88281 20.6094 2.74219V1.875C20.6094 0.835938 21.4453 0 22.4844 0C23.5234 0 24.3594 0.835938 24.3594 1.875H24.375ZM44.3906 26.2734C45.4141 27.6641 45.1172 29.6172 43.7266 30.6406L33.8359 37.9297C32.0078 39.2734 29.8047 40 27.5312 40H2.5C1.11719 40 0 38.8828 0 37.5V32.5C0 31.1172 1.11719 30 2.5 30H5.375L8.88281 27.1875C10.6562 25.7656 12.8594 25 15.1328 25H27.5C28.8828 25 30 26.1172 30 27.5C30 28.8828 28.8828 30 27.5 30H21.25C20.5625 30 20 30.5625 20 31.25C20 31.9375 20.5625 32.5 21.25 32.5H30.6719L40.0234 25.6094C41.4141 24.5859 43.3672 24.8828 44.3906 26.2734ZM15.125 30H15.0547H15.125Z" fill="#325FA4"/>
</svg>
