<svg width="40" height="40" viewBox="0 0 40 40" fill="none" xmlns="http://www.w3.org/2000/svg">
<rect width="40" height="40" rx="20" fill="#325FA4"/>
<path fill-rule="evenodd" clip-rule="evenodd" d="M11.4221 15.0123C11.2903 15.036 11.1046 15.1884 11.0492 15.3183C11.0081 15.4148 11.0002 16.246 11.0002 20.5023C11.0002 26.1035 10.9836 25.7156 11.2311 25.9007L11.3639 26H20H28.6361L28.7689 25.9007C29.0164 25.7156 28.9998 26.1035 28.9998 20.5023C28.9998 14.9011 29.0164 15.289 28.7689 15.104L28.6361 15.0046L20.0731 15.0005C15.3634 14.9983 11.4704 15.0035 11.4221 15.0123ZM15.5037 17.0303C15.6932 17.1544 15.7461 17.2965 15.7461 17.6817L15.7462 18.015L16.3765 18.0264C16.9479 18.0368 17.0159 18.0445 17.1038 18.1089C17.2833 18.2404 17.3458 18.3556 17.3458 18.5549C17.3458 18.7542 17.2833 18.8693 17.1038 19.0008C17.011 19.0688 16.9503 19.0726 15.7173 19.0891C14.2792 19.1083 14.3018 19.1044 14.1815 19.353C14.1108 19.4991 14.1326 19.6609 14.2413 19.7964C14.3781 19.9668 14.4817 19.9853 15.3019 19.9853C15.9528 19.9853 16.0858 19.9946 16.2801 20.0534C16.8452 20.2245 17.2464 20.6816 17.3373 21.2581C17.4514 21.9807 16.9713 22.7164 16.2671 22.8982C16.1643 22.9248 16.0051 22.9559 15.9132 22.9674L15.7462 22.9883L15.7461 23.3222C15.7461 23.5713 15.7305 23.6866 15.6846 23.7761C15.502 24.1325 14.9761 24.1478 14.7617 23.803C14.7041 23.7104 14.6918 23.6291 14.6917 23.3402L14.6915 22.9897L14.0851 22.9781C13.4128 22.9653 13.3244 22.9418 13.1751 22.7362C13.1164 22.6554 13.0946 22.5778 13.0949 22.4513C13.0953 22.255 13.1638 22.1284 13.3339 22.0094C13.4412 21.9344 13.4707 21.9324 14.7267 21.9155C15.7532 21.9017 16.0249 21.8885 16.0849 21.8494C16.2792 21.7228 16.3396 21.414 16.2061 21.2301C16.0671 21.0387 15.9697 21.0194 15.1433 21.0189C14.6201 21.0186 14.3379 21.0042 14.2117 20.9713C13.3829 20.7549 12.8878 19.8897 13.1394 19.0972C13.3281 18.5029 13.8269 18.1116 14.4894 18.0381L14.6915 18.0156V17.6717C14.6915 17.3068 14.7233 17.2011 14.8728 17.0685C14.9797 16.9735 15.0273 16.9581 15.2225 16.9548C15.3356 16.9529 15.4202 16.9756 15.5037 17.0303ZM26.9372 17.0336C27.094 17.0978 27.2306 17.2666 27.259 17.4311C27.2913 17.6188 27.1862 17.847 27.0216 17.9468L26.8977 18.0218L24.0998 18.0126L21.3019 18.0034L21.1748 17.8788C20.9109 17.62 20.974 17.2115 21.3032 17.0469C21.4149 16.9911 21.6227 16.9866 24.1231 16.9866C26.3235 16.9865 26.8436 16.9952 26.9372 17.0336ZM26.9372 18.8604C27.094 18.9246 27.2306 19.0935 27.259 19.2579C27.2908 19.4429 27.1825 19.6831 27.0247 19.7774C26.9102 19.8459 26.8565 19.8472 24.1362 19.8473C21.5595 19.8474 21.357 19.8432 21.2598 19.7871C20.8978 19.5782 20.9448 19.0051 21.3366 18.8518C21.3913 18.8305 22.4307 18.8169 24.1231 18.8155C26.3272 18.8138 26.8434 18.822 26.9372 18.8604ZM22.6633 21.157C22.7913 21.2335 22.8246 21.2819 23.1165 21.8158L23.3215 22.1909L23.7099 21.8111C24.138 21.3926 24.2509 21.3328 24.492 21.3964C24.6619 21.4413 24.7094 21.4859 25.0602 21.93L25.3482 22.2947H26.1035C26.9289 22.2947 26.9798 22.3047 27.1466 22.499C27.2775 22.6515 27.3007 22.8465 27.2094 23.0272C27.0655 23.3122 27.0745 23.3101 25.9498 23.3216C24.7724 23.3336 24.8132 23.3439 24.513 22.9596L24.3095 22.6991L23.9109 23.1025C23.403 23.6164 23.2693 23.6773 22.9655 23.5331C22.8125 23.4605 22.7843 23.4247 22.5495 23.0049L22.4166 22.7673L22.1311 23.3146C21.8793 23.7976 21.8291 23.8713 21.705 23.9415C21.4416 24.0904 21.0978 23.9909 20.9711 23.7292C20.8565 23.4923 20.8824 23.4149 21.4519 22.2947C21.9009 21.4113 22.0054 21.231 22.1057 21.1658C22.2595 21.066 22.5046 21.0621 22.6633 21.157Z" fill="white"/>
</svg>
