<svg width="21" height="20" viewBox="0 0 21 20" fill="none" xmlns="http://www.w3.org/2000/svg">
<path d="M19.3993 1.26759C19.2513 1.23241 19.0957 1.2514 18.9606 1.3211L18.0001 1.80079L17.0313 1.31641C16.9445 1.27303 16.8488 1.25044 16.7518 1.25044C16.6548 1.25044 16.5591 1.27303 16.4723 1.31641L15.4915 1.80118L14.5235 1.31641C14.4365 1.27271 14.3404 1.24995 14.243 1.24995C14.1456 1.24995 14.0496 1.27271 13.9626 1.31641L13.0001 1.79962L12.045 1.31759C11.9582 1.27358 11.8623 1.25045 11.765 1.25005C11.6677 1.24964 11.5716 1.27197 11.4844 1.31524L10.5001 1.80157L9.5313 1.31602C9.44437 1.27266 9.34856 1.25008 9.25142 1.25008C9.15427 1.25008 9.05846 1.27266 8.97153 1.31602L8.00005 1.80079L7.02974 1.31602C6.90465 1.25332 6.76214 1.23441 6.62502 1.26231C6.48791 1.29022 6.36412 1.36332 6.27349 1.46993C6.1758 1.58636 6.12313 1.73398 6.12505 1.88595V11.25L6.127 11.252H13.6251C13.9566 11.252 14.2745 11.3837 14.5089 11.6181C14.7434 11.8525 14.875 12.1704 14.875 12.502V16.5625C14.875 17.7707 16.1668 18.75 17.3751 18.75H17.8438C18.3825 18.75 18.8992 18.536 19.2801 18.1551C19.661 17.7741 19.875 17.2575 19.875 16.7188V1.87501C19.8752 1.73512 19.8283 1.59924 19.7421 1.48912C19.6558 1.37899 19.5351 1.30098 19.3993 1.26759ZM16.7501 9.37501H11.7696C11.4321 9.37501 11.1407 9.11563 11.1258 8.77814C11.122 8.69379 11.1354 8.60955 11.165 8.5305C11.1947 8.45144 11.24 8.37922 11.2984 8.31818C11.3567 8.25714 11.4268 8.20856 11.5044 8.17536C11.5821 8.14216 11.6656 8.12503 11.7501 8.12501H16.7305C17.068 8.12501 17.3594 8.38439 17.3743 8.72188C17.3781 8.80623 17.3647 8.89047 17.3351 8.96952C17.3054 9.04858 17.2601 9.1208 17.2017 9.18184C17.1434 9.24288 17.0733 9.29146 16.9957 9.32466C16.918 9.35786 16.8345 9.37499 16.7501 9.37501ZM16.7501 6.25001H9.26958C8.93208 6.25001 8.64068 5.99063 8.62583 5.65313C8.62203 5.56879 8.63536 5.48455 8.66502 5.40549C8.69467 5.32644 8.74004 5.25422 8.79837 5.19318C8.85671 5.13214 8.92681 5.08356 9.00444 5.05036C9.08207 5.01716 9.16562 5.00003 9.25005 5.00001H16.7305C17.068 5.00001 17.3594 5.25938 17.3743 5.59688C17.3781 5.68123 17.3647 5.76547 17.3351 5.84452C17.3054 5.92358 17.2601 5.9958 17.2017 6.05684C17.1434 6.11788 17.0733 6.16646 16.9957 6.19966C16.918 6.23286 16.8345 6.24999 16.7501 6.25001Z" fill="white"/>
<path d="M13.625 16.5625V13.125C13.625 12.9592 13.5592 12.8003 13.4419 12.6831C13.3247 12.5658 13.1658 12.5 13 12.5H2.375C2.04346 12.501 1.72582 12.6333 1.49157 12.8679C1.25731 13.1026 1.12551 13.4204 1.125 13.752C1.125 15.7266 1.35078 16.5477 1.68984 17.1727C2.26523 18.234 3.30703 18.75 4.875 18.75H14.4719C14.5027 18.75 14.5329 18.7409 14.5585 18.7239C14.5842 18.7068 14.6042 18.6825 14.6161 18.6541C14.628 18.6256 14.6313 18.5943 14.6254 18.564C14.6195 18.5338 14.6049 18.5059 14.5832 18.484C14.2137 18.1133 13.625 17.6172 13.625 16.5625Z" fill="white"/>
</svg>
