<svg width="48" height="48" viewBox="0 0 48 48" fill="none" xmlns="http://www.w3.org/2000/svg">
<path d="M36.5 44L31 38L33.32 35.64L36.5 38.82L43.68 31.64L46 34.46M39 7L36 4L33 7L30 4L27 7L24 4L21 7L18 4L15 7L12 4L9 7L6 4V44L9 41L12 44L15 41L18 44L21 41L24 44L26.52 41.48C26.18 40.36 26 39.18 26 38C26 36.64 26.24 35.28 26.68 34H12V30H29.06C30.6455 28.2271 32.7218 26.9651 35.0256 26.374C37.3294 25.7829 39.7568 25.8894 42 26.68V4L39 7ZM36 26H12V22H36V26ZM36 18H12V14H36V18Z" fill="#325FA4"/>
</svg>
