<svg width="28" height="30" viewBox="0 0 28 30" fill="none" xmlns="http://www.w3.org/2000/svg">
<path fill-rule="evenodd" clip-rule="evenodd" d="M2.36243 5.33978C1.75616 5.70205 1.68483 6.70567 2.23037 7.19813L2.42336 7.37237L3.6947 7.40471L4.96604 7.43705L5.17615 7.63568C5.57039 8.00849 5.68083 8.52902 5.46952 9.01883C5.26405 9.49499 5.1104 9.56672 4.21011 9.60663C3.39964 9.64259 3.26791 9.68062 3.01513 9.95143C2.59218 10.4046 2.6425 11.2051 3.12027 11.6233C3.32902 11.806 3.61806 11.8643 4.32509 11.866C4.89388 11.8674 4.97895 11.8829 5.1448 12.015C5.77596 12.5179 5.69916 13.5646 5.00329 13.9444C4.80313 14.0536 4.6108 14.0639 2.74507 14.0652C0.478315 14.0667 0.454355 14.0707 0.187189 14.4848C-0.161921 15.026 -0.00426903 15.8376 0.506869 16.1301C0.734431 16.2604 0.824799 16.2657 2.81881 16.2667C4.86484 16.2678 4.89689 16.2698 5.10859 16.4122C5.36378 16.584 5.57766 17.0185 5.57766 17.3652C5.57766 17.7322 5.36673 18.1412 5.08753 18.3158C4.87162 18.4508 4.77753 18.4648 4.08199 18.4648C3.41479 18.4648 3.28383 18.4824 3.07788 18.6003C2.42862 18.9719 2.40367 20.0922 3.0351 20.5164C3.25134 20.6616 3.26622 20.6625 5.21635 20.647L7.17989 20.6315L7.35412 20.1417C7.87707 18.6715 8.97861 17.6718 10.2915 17.4758C11.1948 17.341 11.991 17.6454 12.6056 18.3605C13.1115 18.9491 13.4001 19.7635 13.4001 20.6023V20.9225L16.1762 20.9225L18.9524 20.9223L19.052 20.5182C19.3629 19.2573 20.3528 18.0772 21.4615 17.6456C22.0586 17.4131 22.9359 17.3991 23.4335 17.614C24.4462 18.0513 25.0848 19.0145 25.2057 20.2869L25.2445 20.6962L25.49 20.6748C26.0202 20.6285 26.5005 20.2468 26.882 19.5683C27.3202 18.7889 27.4514 18.244 27.8167 15.6869C28.0164 14.2888 28.0431 13.8083 27.9443 13.3875C27.8542 13.0037 27.4618 11.9979 27.0734 11.1555C26.268 9.40833 25.737 8.65385 25.0067 8.21901C24.4181 7.86852 24.0314 7.78683 22.731 7.73839L21.5865 7.69577L21.526 7.34003C21.3397 6.24399 20.6212 5.49139 19.6021 5.32484C19.3135 5.27763 16.4351 5.24542 10.8838 5.22718L2.59639 5.20001L2.36243 5.33978ZM10.0133 9.41538C10.1495 9.57636 10.1201 9.83333 9.94548 10.008C9.85057 10.103 9.71939 10.1212 9.13205 10.1212H8.43181L8.39964 10.3799C8.38198 10.5222 8.35298 10.7551 8.33532 10.8974L8.30315 11.1561H8.83699C9.25699 11.1561 9.39222 11.1789 9.47088 11.2631C9.58652 11.3868 9.59467 11.4764 9.51021 11.6957C9.42034 11.9289 9.2373 11.9969 8.69919 11.9969H8.21557L8.18467 12.2071C8.16771 12.3227 8.12515 12.6578 8.09014 12.9518C8.0141 13.5899 7.89846 13.8079 7.63595 13.8079C7.41517 13.8079 7.32814 13.7082 7.32814 13.4554C7.32819 13.0951 7.75799 9.67707 7.82068 9.53859C7.91925 9.32082 8.06903 9.28886 9.01023 9.28447C9.841 9.28065 9.90658 9.28919 10.0133 9.41538ZM12.6749 9.37844C12.8515 9.44047 13.0055 9.54861 13.0937 9.67247C13.5614 10.3297 13.3061 11.6098 12.6107 12.0939C12.5253 12.1534 12.5313 12.2036 12.6855 12.7194C12.8878 13.3962 12.8896 13.4472 12.7188 13.6491C12.5686 13.8268 12.3024 13.8615 12.2008 13.7168C12.1656 13.6667 12.0451 13.3247 11.933 12.9569L11.7292 12.2879L11.3387 12.2691C10.8937 12.2475 10.9272 12.1974 10.8517 12.9994C10.811 13.4319 10.7138 13.7073 10.5805 13.7677C10.4009 13.8492 10.2289 13.8062 10.1476 13.6595C10.073 13.5247 10.0865 13.3311 10.2931 11.5736C10.5827 9.11048 10.4853 9.28039 11.6082 9.28039C12.1526 9.28039 12.4818 9.31066 12.6749 9.37844ZM16.3231 9.36628C16.4493 9.47546 16.451 9.7647 16.3263 9.92763C16.2409 10.0391 16.1414 10.0552 15.4344 10.071L14.6387 10.0889L14.6026 10.2506C14.5828 10.3395 14.551 10.548 14.532 10.714L14.4975 11.0157L15.1294 11.0374C15.6793 11.0562 15.7714 11.0754 15.8389 11.1846C15.9518 11.3674 15.9343 11.5288 15.7821 11.7087C15.6552 11.8588 15.6135 11.8675 15.0229 11.8675H14.398L14.3367 12.3553C14.303 12.6235 14.2753 12.8854 14.2753 12.9374C14.2753 13.0157 14.4084 13.0317 15.0576 13.0317C15.9164 13.0317 15.9711 13.0536 15.9711 13.3967C15.9711 13.7731 15.8638 13.8079 14.7047 13.8079C13.5854 13.8079 13.5092 13.7839 13.5098 13.4314C13.5104 13.0707 13.9367 9.68295 13.9988 9.5459C14.0345 9.46699 14.1175 9.37683 14.1832 9.34552C14.3864 9.2487 16.2075 9.26636 16.3231 9.36628ZM19.3173 9.38743C19.4486 9.52792 19.4445 9.76574 19.3079 9.92718C19.2087 10.0446 19.1256 10.0565 18.409 10.0565C17.5164 10.0565 17.5915 10.0056 17.5271 10.6548L17.4902 11.0267L18.0298 11.0277C18.7584 11.029 18.9387 11.1484 18.8492 11.5705C18.8012 11.7961 18.5886 11.8675 17.9652 11.8675C17.6507 11.8675 17.3917 11.8748 17.3897 11.8837C17.3878 11.8926 17.3556 12.1546 17.3183 12.4658L17.2504 13.0317H18.0291C18.6641 13.0317 18.8237 13.0505 18.8938 13.1334C19.0122 13.2733 19.0014 13.4973 18.8682 13.6663C18.7609 13.8026 18.7168 13.8079 17.6933 13.8079C16.6428 13.8079 16.6291 13.8061 16.5472 13.6585C16.4718 13.5224 16.4855 13.3335 16.7003 11.5468C16.999 9.06268 16.8524 9.28039 18.2263 9.28039C19.0716 9.28039 19.232 9.29611 19.3173 9.38743ZM23.6951 9.35257C24.1001 9.45341 24.5357 9.71755 24.8023 10.0239C25.1852 10.4639 26.3056 12.7397 26.3085 13.0835C26.3103 13.2837 26.1737 13.5833 26.0245 13.7069C25.9184 13.7948 25.5844 13.8079 23.4545 13.8079H21.0064L21.033 13.63C21.063 13.4297 21.496 9.40845 21.496 9.33052C21.496 9.25271 23.3694 9.27147 23.6951 9.35257ZM0.786343 9.79077C0.297414 10.1433 0.15486 10.8875 0.476236 11.4098C0.606865 11.6221 1.0104 11.8675 1.22883 11.8675C1.44726 11.8675 1.8508 11.6221 1.98142 11.4098C2.41718 10.7015 1.97377 9.66807 1.23441 9.66872C1.05767 9.66885 0.893341 9.71361 0.786343 9.79077ZM11.1877 10.2021C11.148 10.4208 11.0479 11.2635 11.0479 11.3787C11.0479 11.4632 11.1339 11.4791 11.5812 11.4772C12.1663 11.4747 12.3063 11.4185 12.4731 11.1194C12.5944 10.9017 12.614 10.4603 12.5097 10.2917C12.4179 10.1431 12.0974 10.06 11.6096 10.0581C11.2432 10.0567 11.2122 10.0673 11.1877 10.2021ZM9.82617 18.8538C8.76692 19.2973 8.07056 20.49 8.1635 21.7017C8.32405 23.7956 10.6469 24.2508 11.8264 22.4197C12.6201 21.1874 12.3892 19.5489 11.3361 18.9397C10.9183 18.698 10.2844 18.6619 9.82617 18.8538ZM21.8034 18.7916C21.1929 18.9719 20.4686 19.6882 20.2028 20.3745C19.8932 21.1741 19.9105 21.9327 20.2539 22.6091C20.6777 23.444 21.5357 23.7776 22.421 23.4518C23.0882 23.2063 23.6128 22.6621 23.9243 21.8927C24.0796 21.5089 24.0944 21.4161 24.0943 20.8255C24.0943 20.2492 24.0784 20.1435 23.9487 19.8553C23.6314 19.1509 23.1203 18.7791 22.426 18.7476C22.2003 18.7374 21.9201 18.7572 21.8034 18.7916Z" fill="#325FA4"/>
</svg>
