<svg width="60" height="60" viewBox="0 0 60 60" fill="none" xmlns="http://www.w3.org/2000/svg">
<path d="M3.33333 26.6667H23.3333C24.2174 26.6667 25.0652 26.3155 25.6904 25.6904C26.3155 25.0652 26.6667 24.2174 26.6667 23.3333V3.33333C26.6667 2.44928 26.3155 1.60143 25.6904 0.976311C25.0652 0.351189 24.2174 0 23.3333 0H3.33333C2.44928 0 1.60143 0.351189 0.976311 0.976311C0.351189 1.60143 0 2.44928 0 3.33333V23.3333C0 24.2174 0.351189 25.0652 0.976311 25.6904C1.60143 26.3155 2.44928 26.6667 3.33333 26.6667ZM36.6667 26.6667H56.6667C57.5507 26.6667 58.3986 26.3155 59.0237 25.6904C59.6488 25.0652 60 24.2174 60 23.3333V3.33333C60 2.44928 59.6488 1.60143 59.0237 0.976311C58.3986 0.351189 57.5507 0 56.6667 0H36.6667C35.7826 0 34.9348 0.351189 34.3096 0.976311C33.6845 1.60143 33.3333 2.44928 33.3333 3.33333V23.3333C33.3333 24.2174 33.6845 25.0652 34.3096 25.6904C34.9348 26.3155 35.7826 26.6667 36.6667 26.6667ZM3.33333 60H23.3333C24.2174 60 25.0652 59.6488 25.6904 59.0237C26.3155 58.3986 26.6667 57.5507 26.6667 56.6667V36.6667C26.6667 35.7826 26.3155 34.9348 25.6904 34.3096C25.0652 33.6845 24.2174 33.3333 23.3333 33.3333H3.33333C2.44928 33.3333 1.60143 33.6845 0.976311 34.3096C0.351189 34.9348 0 35.7826 0 36.6667V56.6667C0 57.5507 0.351189 58.3986 0.976311 59.0237C1.60143 59.6488 2.44928 60 3.33333 60ZM46.6667 60C54.02 60 60 54.02 60 46.6667C60 39.3133 54.02 33.3333 46.6667 33.3333C39.3133 33.3333 33.3333 39.3133 33.3333 46.6667C33.3333 54.02 39.3133 60 46.6667 60Z" fill="#325FA4"/>
<circle cx="46.5" cy="46.5" r="13.5" fill="#6591D5"/>
</svg>
