<svg width="26" height="26" viewBox="0 0 26 26" fill="none" xmlns="http://www.w3.org/2000/svg">
<path d="M12.9987 23.4173C18.7517 23.4173 23.4154 18.7536 23.4154 13.0007C23.4154 7.24768 18.7517 2.58398 12.9987 2.58398C7.24573 2.58398 2.58203 7.24768 2.58203 13.0007C2.58203 18.7536 7.24573 23.4173 12.9987 23.4173Z" fill="#325FA4" stroke="#325FA4" stroke-width="1.5" stroke-linecap="round" stroke-linejoin="round"/>
<path d="M17.1667 11.1445C17.1667 11.748 17.0395 12.3019 16.785 12.8064C16.5306 13.3011 16.1399 13.7017 15.6129 14.0084C15.0859 14.315 14.4317 14.4684 13.6503 14.4684H12.2056V18.2077H9.875V7.79102H13.6503C14.4136 7.79102 15.0587 7.93445 15.5857 8.22133C16.1127 8.50821 16.5079 8.90391 16.7714 9.40842C17.0349 9.91293 17.1667 10.4916 17.1667 11.1445ZM13.4731 12.4503C13.9184 12.4503 14.25 12.3366 14.4681 12.109C14.6861 11.8815 14.7952 11.56 14.7952 11.1445C14.7952 10.729 14.6861 10.4075 14.4681 10.18C14.25 9.9525 13.9184 9.83874 13.4731 9.83874H12.2056V12.4503H13.4731Z" fill="white"/>
</svg>
