<svg width="30" height="30" viewBox="0 0 30 30" fill="none" xmlns="http://www.w3.org/2000/svg">
<path d="M21 4.80078H9C5.4 4.80078 3 6.60078 3 10.8008V19.2008C3 23.4008 5.4 25.2008 9 25.2008H21C24.6 25.2008 27 23.4008 27 19.2008V10.8008C27 6.60078 24.6 4.80078 21 4.80078ZM21.564 12.1088L17.808 15.1088C17.016 15.7448 16.008 16.0568 15 16.0568C13.992 16.0568 12.972 15.7448 12.192 15.1088L8.436 12.1088C8.052 11.7968 7.992 11.2208 8.292 10.8368C8.604 10.4528 9.168 10.3808 9.552 10.6928L13.308 13.6928C14.22 14.4248 15.768 14.4248 16.68 13.6928L20.436 10.6928C20.82 10.3808 21.396 10.4408 21.696 10.8368C22.008 11.2208 21.948 11.7968 21.564 12.1088Z" fill="#325FA4"/>
</svg>
