<svg width="28" height="28" viewBox="0 0 28 28" fill="none" xmlns="http://www.w3.org/2000/svg">
<path d="M14.0013 0.666016C6.65464 0.666016 0.667969 6.65268 0.667969 13.9993C0.667969 21.346 6.65464 27.3327 14.0013 27.3327C21.348 27.3327 27.3346 21.346 27.3346 13.9993C27.3346 6.65268 21.348 0.666016 14.0013 0.666016ZM18.4813 17.066C18.868 17.4527 18.868 18.0927 18.4813 18.4793C18.2813 18.6793 18.028 18.7727 17.7746 18.7727C17.5213 18.7727 17.268 18.6793 17.068 18.4793L14.0013 15.4127L10.9346 18.4793C10.7346 18.6793 10.4813 18.7727 10.228 18.7727C9.97464 18.7727 9.7213 18.6793 9.5213 18.4793C9.13464 18.0927 9.13464 17.4527 9.5213 17.066L12.588 13.9993L9.5213 10.9327C9.13464 10.546 9.13464 9.90602 9.5213 9.51935C9.90797 9.13268 10.548 9.13268 10.9346 9.51935L14.0013 12.586L17.068 9.51935C17.4546 9.13268 18.0946 9.13268 18.4813 9.51935C18.868 9.90602 18.868 10.546 18.4813 10.9327L15.4146 13.9993L18.4813 17.066Z" fill="#C42A27"/>
</svg>
