<svg width="30" height="30" viewBox="0 0 30 30" fill="none" xmlns="http://www.w3.org/2000/svg">
<path d="M22.9956 13.6091C22.9953 13.7763 22.9286 13.9365 22.8103 14.0546C22.692 14.1728 22.5316 14.2391 22.3644 14.2391H20.61V15.3647H22.3644C22.4494 15.361 22.5342 15.3745 22.6138 15.4045C22.6934 15.4344 22.7661 15.4802 22.8275 15.539C22.889 15.5978 22.9379 15.6685 22.9713 15.7467C23.0047 15.8249 23.0219 15.9091 23.0219 15.9941C23.0219 16.0791 23.0047 16.1633 22.9713 16.2415C22.9379 16.3197 22.889 16.3904 22.8275 16.4492C22.7661 16.508 22.6934 16.5538 22.6138 16.5837C22.5342 16.6137 22.4494 16.6272 22.3644 16.6235H19.98C19.8138 16.6222 19.6549 16.5555 19.5376 16.4378C19.4203 16.3201 19.3542 16.1609 19.3536 15.9947V11.2235C19.3536 10.8791 19.6356 10.5935 19.9836 10.5935H22.3692C22.5363 10.594 22.6963 10.6608 22.8142 10.7793C22.932 10.8978 22.9979 11.0582 22.9974 11.2253C22.9969 11.3924 22.9301 11.5524 22.8116 11.6702C22.6931 11.7881 22.5327 11.854 22.3656 11.8535H20.6112V12.9791H22.3656C22.7148 12.9791 22.9968 13.2635 22.9968 13.6091H22.9956ZM18.078 16.5911C18.0136 16.6115 17.9464 16.6216 17.8788 16.6211C17.78 16.6233 17.6822 16.6018 17.5934 16.5583C17.5047 16.5149 17.4277 16.4508 17.3688 16.3715L14.9256 13.0547V15.9947C14.9136 16.1531 14.8422 16.3011 14.7257 16.4091C14.6092 16.5171 14.4562 16.5771 14.2974 16.5771C14.1386 16.5771 13.9856 16.5171 13.8691 16.4091C13.7526 16.3011 13.6812 16.1531 13.6692 15.9947V11.2235C13.6689 11.0576 13.7344 10.8983 13.8514 10.7806C13.9684 10.663 14.1273 10.5965 14.2932 10.5959C14.4876 10.5959 14.6676 10.6991 14.7876 10.8491L17.25 14.1791V11.2235C17.25 10.8791 17.532 10.5935 17.88 10.5935C18.2244 10.5935 18.51 10.8791 18.51 11.2235V15.9947C18.5098 16.1269 18.468 16.2557 18.3904 16.3628C18.3129 16.4698 18.2036 16.5497 18.078 16.5911V16.5911ZM12.138 16.6235C11.9716 16.6226 11.8124 16.556 11.6948 16.4382C11.5773 16.3205 11.511 16.1611 11.5104 15.9947V11.2235C11.5104 10.8791 11.7936 10.5935 12.1404 10.5935C12.4872 10.5935 12.7692 10.8791 12.7692 11.2235V15.9947C12.7683 16.1616 12.7014 16.3213 12.5831 16.4391C12.4649 16.5569 12.3049 16.6232 12.138 16.6235V16.6235ZM10.302 16.6235H7.9176C7.75101 16.6226 7.5915 16.556 7.47359 16.4384C7.35568 16.3207 7.28886 16.1613 7.2876 15.9947V11.2235C7.30137 11.0659 7.3737 10.9192 7.49033 10.8123C7.60696 10.7054 7.75941 10.6461 7.9176 10.6461C8.07579 10.6461 8.22824 10.7054 8.34487 10.8123C8.4615 10.9192 8.53383 11.0659 8.5476 11.2235V15.3635H10.3044C10.4715 15.3635 10.6317 15.4299 10.7499 15.548C10.868 15.6662 10.9344 15.8264 10.9344 15.9935C10.9344 16.1606 10.868 16.3208 10.7499 16.439C10.6317 16.5571 10.4715 16.6235 10.3044 16.6235H10.302ZM15 3.6875C8.3844 3.6875 3 8.0591 3 13.4291C3 18.2411 7.2696 22.2719 13.0356 23.0375C13.4256 23.1191 13.9584 23.2955 14.0928 23.6279C14.2128 23.9279 14.172 24.3935 14.1312 24.7079L13.9668 25.7279C13.9224 26.0279 13.7268 26.9135 15.0156 26.3723C16.3068 25.8335 21.9324 22.2947 24.4524 19.3979C26.1756 17.5079 27 15.5735 27 13.4291C27 8.0591 21.6144 3.6875 15 3.6875V3.6875Z" fill="#325FA4"/>
</svg>
