<svg width="20" height="20" viewBox="0 0 20 20" fill="none" xmlns="http://www.w3.org/2000/svg">
<path fill-rule="evenodd" clip-rule="evenodd" d="M4.52381 1.66602C3.98706 1.66602 3.4723 1.88551 3.09276 2.27621C2.71322 2.66691 2.5 3.19681 2.5 3.74935V18.3327L6.04167 16.2494L9.58333 18.3327L13.125 16.2494L16.6667 18.3327V3.74935C16.6667 3.19681 16.4534 2.66691 16.0739 2.27621C15.6944 1.88551 15.1796 1.66602 14.6429 1.66602H4.52381ZM7.05357 4.79102C6.65101 4.79102 6.26494 4.95564 5.98028 5.24866C5.69563 5.54169 5.53571 5.93912 5.53571 6.35352C5.53571 6.76792 5.69563 7.16534 5.98028 7.45837C6.26494 7.7514 6.65101 7.91602 7.05357 7.91602C7.45613 7.91602 7.84221 7.7514 8.12686 7.45837C8.41151 7.16534 8.57143 6.76792 8.57143 6.35352C8.57143 5.93912 8.41151 5.54169 8.12686 5.24866C7.84221 4.95564 7.45613 4.79102 7.05357 4.79102V4.79102ZM13.3345 5.09622C13.1447 4.90094 12.8874 4.79124 12.619 4.79124C12.3507 4.79124 12.0934 4.90094 11.9036 5.09622L5.8322 11.3462C5.73556 11.4423 5.65847 11.5573 5.60543 11.6843C5.5524 11.8114 5.52449 11.9481 5.52332 12.0864C5.52215 12.2247 5.54775 12.3619 5.59863 12.4899C5.64951 12.6179 5.72465 12.7342 5.81966 12.8321C5.91467 12.9299 6.02765 13.0072 6.15201 13.0596C6.27637 13.112 6.40962 13.1383 6.54398 13.1371C6.67834 13.1359 6.81112 13.1072 6.93458 13.0526C7.05803 12.998 7.16969 12.9186 7.26304 12.8191L13.3345 6.56914C13.5242 6.3738 13.6307 6.1089 13.6307 5.83268C13.6307 5.55647 13.5242 5.29157 13.3345 5.09622V5.09622ZM12.1131 9.99935C11.7105 9.99935 11.3245 10.164 11.0398 10.457C10.7552 10.75 10.5952 11.1474 10.5952 11.5618C10.5952 11.9763 10.7552 12.3737 11.0398 12.6667C11.3245 12.9597 11.7105 13.1243 12.1131 13.1243C12.5157 13.1243 12.9017 12.9597 13.1864 12.6667C13.471 12.3737 13.631 11.9763 13.631 11.5618C13.631 11.1474 13.471 10.75 13.1864 10.457C12.9017 10.164 12.5157 9.99935 12.1131 9.99935V9.99935Z" fill="#325FA4"/>
</svg>
