<svg width="40" height="40" viewBox="0 0 40 40" fill="none" xmlns="http://www.w3.org/2000/svg">
<rect width="40" height="40" rx="20" fill="#325FA4"/>
<path d="M10 16V20.001H11V26H10V29H26L29 29.001V29H30V26H29V20.001H30V16L20 10L10 16ZM14 26V20.001H16V26H14ZM19 26V20.001H21V26H19ZM26 26H24V20.001H26V26ZM22 16C21.9999 16.2627 21.9481 16.5228 21.8475 16.7655C21.7469 17.0082 21.5995 17.2287 21.4137 17.4144C21.2279 17.6001 21.0073 17.7474 20.7646 17.8479C20.5219 17.9484 20.2617 18.0001 19.999 18C19.7363 17.9999 19.4762 17.9481 19.2335 17.8475C18.9908 17.7469 18.7703 17.5995 18.5846 17.4137C18.3989 17.2279 18.2516 17.0073 18.1511 16.7646C18.0506 16.5219 17.9989 16.2617 17.999 15.999C17.9991 15.4684 18.21 14.9597 18.5853 14.5846C18.9605 14.2095 19.4694 13.9989 20 13.999C20.5306 13.9991 21.0393 14.21 21.4144 14.5853C21.7895 14.9605 22.0001 15.4694 22 16V16Z" fill="white"/>
</svg>
