<svg width="40" height="40" viewBox="0 0 40 40" fill="none" xmlns="http://www.w3.org/2000/svg">
<rect width="40" height="40" rx="20" fill="#325FA4"/>
<g clip-path="url(#clip0_962_106266)">
<path d="M30.8 13.4688H9.2C8.53738 13.4688 8 13.9935 8 14.6406V26.3594C8 27.0065 8.53738 27.5312 9.2 27.5312H30.8C31.4626 27.5312 32 27.0065 32 26.3594V14.6406C32 13.9935 31.4626 13.4688 30.8 13.4688ZM9.8 25.7734V23.4297C11.1256 23.4297 12.2 24.4789 12.2 25.7734H9.8ZM9.8 17.5703V15.2266H12.2C12.2 16.5211 11.1256 17.5703 9.8 17.5703ZM20 24.0156C18.3429 24.0156 17 22.4413 17 20.5C17 18.5583 18.3433 16.9844 20 16.9844C21.6568 16.9844 23 18.5583 23 20.5C23 22.442 21.6564 24.0156 20 24.0156ZM30.2 25.7734H27.8C27.8 24.4789 28.8744 23.4297 30.2 23.4297V25.7734ZM30.2 17.5703C28.8744 17.5703 27.8 16.5211 27.8 15.2266H30.2V17.5703Z" fill="white"/>
</g>
<defs>
<clipPath id="clip0_962_106266">
<rect width="24" height="15" fill="white" transform="translate(8 13)"/>
</clipPath>
</defs>
</svg>
