<svg width="40" height="40" viewBox="0 0 40 40" fill="none" xmlns="http://www.w3.org/2000/svg">
<rect width="40" height="40" rx="20" fill="#E6F0FF"/>
<path d="M26.25 30L23.5 27L24.66 25.82L26.25 27.41L29.84 23.82L31 25.23M27.5 11.5L26 10L24.5 11.5L23 10L21.5 11.5L20 10L18.5 11.5L17 10L15.5 11.5L14 10L12.5 11.5L11 10V30L12.5 28.5L14 30L15.5 28.5L17 30L18.5 28.5L20 30L21.26 28.74C21.09 28.18 21 27.59 21 27C21 26.32 21.12 25.64 21.34 25H14V23H22.53C23.3227 22.1136 24.3609 21.4826 25.5128 21.187C26.6647 20.8915 27.8784 20.9447 29 21.34V10L27.5 11.5ZM26 21H14V19H26V21ZM26 17H14V15H26V17Z" fill="#325FA4"/>
</svg>
