<svg width="20" height="16" viewBox="0 0 20 16" fill="none" xmlns="http://www.w3.org/2000/svg">
<g clip-path="url(#clip0_647_35707)">
<path d="M3.5 0.5C2.67156 0.5 2 1.12959 2 1.90625V3.3125H0.5C0.223844 3.3125 0 3.52344 0 3.78125C0 4.03906 0.223844 4.25 0.5 4.25H8.5C8.775 4.25 9 4.46094 9 4.71875C9 4.97656 8.775 5.1875 8.5 5.1875H1.5C1.22375 5.1875 1 5.39844 1 5.65625C1 5.91406 1.22375 6.125 1.5 6.125H7.5C7.775 6.125 8 6.33594 8 6.59375C8 6.85156 7.775 7.0625 7.5 7.0625H0.5C0.223844 7.0625 0 7.27344 0 7.53125C0 7.78906 0.223844 8 0.5 8H6.5C6.775 8 7 8.21094 7 8.46875C7 8.72656 6.775 8.9375 6.5 8.9375H2V12.6875C2 14.2402 3.31562 15.5 5 15.5C6.65625 15.5 8 14.2402 8 12.6875H12C12 14.2402 13.3156 15.5 15 15.5C16.6562 15.5 18 14.2402 18 12.6875H19C19.5531 12.6875 20 12.2686 20 11.75C20 11.2314 19.5531 10.8125 19 10.8125V7.45215C19 6.9541 18.7906 6.47656 18.4156 6.125L16 3.86035C15.5969 3.50879 15.1156 3.3125 14.5844 3.3125H13V1.90625C13 1.12959 12.3281 0.5 11.5 0.5H3.5ZM17 7.45215V8H13V5.1875H14.5844L17 7.45215ZM5 14.0938C4.17188 14.0938 3.5 13.4639 3.5 12.6875C3.5 11.9111 4.17188 11.2812 5 11.2812C5.82812 11.2812 6.5 11.9111 6.5 12.6875C6.5 13.4639 5.82812 14.0938 5 14.0938ZM16.5 12.6875C16.5 13.4639 15.8281 14.0938 15 14.0938C14.1719 14.0938 13.5 13.4639 13.5 12.6875C13.5 11.9111 14.1719 11.2812 15 11.2812C15.8281 11.2812 16.5 11.9111 16.5 12.6875Z" fill="#325FA4"/>
</g>
<defs>
<clipPath id="clip0_647_35707">
<rect width="20" height="15" fill="white" transform="translate(0 0.5)"/>
</clipPath>
</defs>
</svg>
