<svg width="20" height="20" viewBox="0 0 20 20" fill="none" xmlns="http://www.w3.org/2000/svg">
<path d="M17.4164 8.20833L17.9081 16.45C17.9247 16.675 17.8164 16.825 17.7581 16.8917C17.6914 16.9667 17.5497 17.0833 17.3164 17.0833H15.0414L16.8414 8.20833H17.4164ZM18.3331 5L18.3247 5.01667C18.3414 5.21667 18.3247 5.425 18.2747 5.63333L12.1331 16.9083C11.9331 17.75 11.1831 18.3333 10.3164 18.3333H17.3164C18.3914 18.3333 19.2414 17.425 19.1581 16.35L18.3331 5Z" fill="#F19E3A"/>
<path d="M9.54349 1.8678C9.62682 1.53447 9.41849 1.1928 9.08516 1.10947C8.75182 1.03447 8.41016 1.23447 8.32682 1.5678L7.91016 3.2928H9.19349L9.54349 1.8678Z" fill="#F19E3A"/>
<path d="M15.0414 1.84244C15.1164 1.50078 14.8997 1.17578 14.5581 1.10078C14.2247 1.02578 13.8914 1.24244 13.8164 1.58411L13.4414 3.30911H14.7247L15.0414 1.84244Z" fill="#F19E3A"/>
<path d="M18.1818 4.44349C17.9068 3.77682 17.2568 3.30182 16.4568 3.30182H14.7235L14.2568 5.46016C14.1902 5.75182 13.9318 5.95182 13.6485 5.95182C13.6068 5.95182 13.5568 5.95182 13.5152 5.93516C13.1818 5.86016 12.9652 5.52682 13.0318 5.19349L13.4402 3.29349H9.19016L8.66516 5.46016C8.59849 5.74349 8.34016 5.93516 8.05683 5.93516C8.00683 5.93516 7.95683 5.92682 7.90683 5.91849C7.57349 5.83516 7.36516 5.50182 7.44849 5.16016L7.89849 3.28516H6.20683C5.39016 3.28516 4.66516 3.81849 4.42349 4.60182L0.91516 15.8935C0.548493 17.1018 1.44016 18.3352 2.69849 18.3352H13.6485C14.5152 18.3352 15.2652 17.7518 15.4652 16.9102L18.2735 5.63516C18.3235 5.42682 18.3402 5.21849 18.3235 5.01849C18.3068 4.81849 18.2652 4.61849 18.1818 4.44349ZM12.2485 13.9602H5.58183C5.24016 13.9602 4.95683 13.6768 4.95683 13.3352C4.95683 12.9935 5.24016 12.7102 5.58183 12.7102H12.2485C12.5902 12.7102 12.8735 12.9935 12.8735 13.3352C12.8735 13.6768 12.5902 13.9602 12.2485 13.9602ZM13.0818 10.6268H6.41516C6.07349 10.6268 5.79016 10.3435 5.79016 10.0018C5.79016 9.66016 6.07349 9.37682 6.41516 9.37682H13.0818C13.4235 9.37682 13.7068 9.66016 13.7068 10.0018C13.7068 10.3435 13.4235 10.6268 13.0818 10.6268Z" fill="#F19E3A"/>
</svg>
