<svg width="20" height="20" viewBox="0 0 20 20" fill="none" xmlns="http://www.w3.org/2000/svg">
<path d="M16.25 2.91602L15 1.66602L13.75 2.91602L12.5 1.66602L11.25 2.91602L10 1.66602L8.75 2.91602L7.5 1.66602L6.25 2.91602L5 1.66602L3.75 2.91602L2.5 1.66602V18.3327L3.75 17.0827L5 18.3327L6.25 17.0827L7.5 18.3327L8.75 17.0827L10 18.3327L11.05 17.2827C10.9083 16.816 10.8333 16.3243 10.8333 15.8327C10.8333 15.266 10.9333 14.6993 11.1167 14.166H5V12.4993H12.1083C12.7689 11.7607 13.6341 11.2348 14.594 10.9885C15.5539 10.7422 16.5653 10.7866 17.5 11.116V1.66602L16.25 2.91602ZM15 10.8327H5V9.16602H15V10.8327ZM15 7.49935H5V5.83268H15V7.49935Z" fill="#C42A27"/>
<path d="M13.332 18.0507L18.0487 13.334" stroke="#C42A27" stroke-width="1.5" stroke-linecap="round" stroke-linejoin="round"/>
<path d="M18.0487 18.0507L15.6904 15.6923L13.332 13.334" stroke="#C42A27" stroke-width="1.5" stroke-linecap="round" stroke-linejoin="round"/>
</svg>
