<svg width="40" height="40" viewBox="0 0 40 40" fill="none" xmlns="http://www.w3.org/2000/svg">
<rect width="40" height="40" rx="20" fill="#325FA4"/>
<path fill-rule="evenodd" clip-rule="evenodd" d="M19.1213 12.3742C18.7876 12.5843 18.5147 12.8288 18.5147 12.9177C18.5147 13.0066 18.1765 13.2422 17.7629 13.4413C16.8501 13.8811 16.4449 14.7664 16.6494 15.8737C16.7469 16.4005 16.7037 16.8062 16.527 17.0221C16.099 17.5457 16.4493 18.7001 17.3041 19.5842C17.7265 20.0211 18.312 20.6806 18.6051 21.0501C19.0935 21.6655 19.2526 21.7219 20.5 21.7219C21.7474 21.7219 21.9065 21.6655 22.3949 21.0501C22.688 20.6806 23.2735 20.0211 23.6959 19.5842C24.6279 18.6204 24.8498 17.7127 24.3777 16.7953C24.1876 16.4258 24.0316 15.6901 24.0307 15.1605C24.0301 14.6311 23.8785 13.9013 23.6939 13.5392C23.0043 12.1854 20.4537 11.5356 19.1213 12.3742ZM16.0882 22.7451C15.0605 23.163 14.1623 23.7103 13.7169 24.1902C13.0174 24.9438 13 25.0114 13 26.9812V29H20.5H28V26.9924C28 25.086 27.9669 24.9465 27.3455 24.2281C26.6489 23.4225 23.2298 21.8917 22.6401 22.1215C22.4714 22.1873 22.2056 22.7037 22.0496 23.2691C21.7364 24.405 21.3157 24.6909 21.5257 23.6254L21.6581 22.9536H20.5H19.3419L19.4743 23.6254C19.6843 24.6912 19.2868 24.4052 18.9294 23.2335C18.5251 21.9076 18.2601 21.8621 16.0882 22.7451ZM25.9044 26.8726V27.7683L24.5065 27.8355C23.6657 27.8758 22.9843 27.7981 22.797 27.6402C22.4729 27.3673 22.3695 26.2811 22.641 26.0052C22.7268 25.9184 23.496 25.8763 24.3506 25.9119L25.9044 25.9768V26.8726Z" fill="white"/>
</svg>
