<svg width="4" height="18" viewBox="0 0 4 18" fill="none" xmlns="http://www.w3.org/2000/svg">
<path d="M-8.74228e-08 2C-3.91018e-08 0.894545 0.894545 -1.35744e-07 2 -8.74228e-08C3.10545 -3.91018e-08 4 0.894545 4 2C4 3.10545 3.10545 4 2 4C0.894545 4 -1.35744e-07 3.10545 -8.74228e-08 2Z" fill="#525252"/>
<path d="M-8.74228e-08 16C-3.91018e-08 14.8945 0.894545 14 2 14C3.10545 14 4 14.8945 4 16C4 17.1055 3.10545 18 2 18C0.894545 18 -1.35744e-07 17.1055 -8.74228e-08 16Z" fill="#525252"/>
<path d="M-8.74228e-08 9C-3.91018e-08 7.89455 0.894545 7 2 7C3.10545 7 4 7.89455 4 9C4 10.1055 3.10545 11 2 11C0.894545 11 -1.35744e-07 10.1055 -8.74228e-08 9Z" fill="#525252"/>
</svg>
