<svg width="20" height="20" viewBox="0 0 20 20" fill="none" xmlns="http://www.w3.org/2000/svg">
<path d="M16.663 8.83999C16.6627 8.97932 16.6072 9.11285 16.5086 9.21128C16.41 9.30971 16.2763 9.36499 16.137 9.36499H14.675V10.303H16.137C16.2078 10.2999 16.2785 10.3112 16.3448 10.3361C16.4112 10.3611 16.4718 10.3992 16.5229 10.4482C16.5741 10.4973 16.6149 10.5561 16.6427 10.6213C16.6706 10.6865 16.6849 10.7566 16.6849 10.8275C16.6849 10.8984 16.6706 10.9685 16.6427 11.0337C16.6149 11.0989 16.5741 11.1577 16.5229 11.2067C16.4718 11.2557 16.4112 11.2939 16.3448 11.3188C16.2785 11.3438 16.2078 11.3551 16.137 11.352H14.15C14.0115 11.3509 13.8791 11.2953 13.7813 11.1972C13.6836 11.0991 13.6285 10.9665 13.628 10.828V6.85199C13.628 6.56499 13.863 6.32699 14.153 6.32699H16.141C16.2802 6.32739 16.4136 6.38308 16.5118 6.48182C16.61 6.58056 16.6649 6.71425 16.6645 6.85349C16.6641 6.99273 16.6084 7.12611 16.5097 7.22428C16.4109 7.32246 16.2772 7.37739 16.138 7.37699H14.676V8.31499H16.138C16.429 8.31499 16.664 8.55199 16.664 8.83999H16.663ZM12.565 11.325C12.5113 11.342 12.4553 11.3504 12.399 11.35C12.3167 11.3518 12.2351 11.3339 12.1612 11.2977C12.0873 11.2615 12.0231 11.2081 11.974 11.142L9.938 8.37799V10.828C9.928 10.96 9.86851 11.0833 9.77143 11.1733C9.67436 11.2633 9.54687 11.3133 9.4145 11.3133C9.28213 11.3133 9.15464 11.2633 9.05757 11.1733C8.96049 11.0833 8.901 10.96 8.891 10.828V6.85199C8.89073 6.71372 8.94534 6.58099 9.04283 6.48294C9.14032 6.38489 9.27273 6.32952 9.411 6.32899C9.573 6.32899 9.723 6.41499 9.823 6.53999L11.875 9.31499V6.85199C11.875 6.56499 12.11 6.32699 12.4 6.32699C12.687 6.32699 12.925 6.56499 12.925 6.85199V10.828C12.9249 10.9382 12.89 11.0455 12.8254 11.1347C12.7607 11.2239 12.6696 11.2905 12.565 11.325V11.325ZM7.615 11.352C7.47636 11.3512 7.34364 11.2957 7.2457 11.1976C7.14776 11.0995 7.09252 10.9666 7.092 10.828V6.85199C7.092 6.56499 7.328 6.32699 7.617 6.32699C7.906 6.32699 8.141 6.56499 8.141 6.85199V10.828C8.14021 10.9671 8.08447 11.1002 7.98594 11.1983C7.88741 11.2965 7.75408 11.3517 7.615 11.352V11.352ZM6.085 11.352H4.098C3.95918 11.3512 3.82625 11.2958 3.72799 11.1977C3.62973 11.0996 3.57405 10.9668 3.573 10.828V6.85199C3.58447 6.72066 3.64475 6.5984 3.74194 6.50934C3.83913 6.42027 3.96617 6.37086 4.098 6.37086C4.22983 6.37086 4.35687 6.42027 4.45406 6.50934C4.55125 6.5984 4.61153 6.72066 4.623 6.85199V10.302H6.087C6.22624 10.302 6.35977 10.3573 6.45823 10.4558C6.55669 10.5542 6.612 10.6878 6.612 10.827C6.612 10.9662 6.55669 11.0998 6.45823 11.1982C6.35977 11.2967 6.22624 11.352 6.087 11.352H6.085ZM10 0.571991C4.487 0.571991 0 4.21499 0 8.68999C0 12.7 3.558 16.059 8.363 16.697C8.688 16.765 9.132 16.912 9.244 17.189C9.344 17.439 9.31 17.827 9.276 18.089L9.139 18.939C9.102 19.189 8.939 19.927 10.013 19.476C11.089 19.027 15.777 16.078 17.877 13.664C19.313 12.089 20 10.477 20 8.68999C20 4.21499 15.512 0.571991 10 0.571991V0.571991Z" fill="#868686"/>
</svg>
