<svg width="40" height="40" viewBox="0 0 40 40" fill="none" xmlns="http://www.w3.org/2000/svg">
<rect width="40" height="40" rx="20" fill="#325FA4"/>
<path d="M12 16.1667C12 15.592 12.2239 15.0409 12.6224 14.6346C13.0209 14.2283 13.5614 14 14.125 14H26.875C27.4386 14 27.9791 14.2283 28.3776 14.6346C28.7761 15.0409 29 15.592 29 16.1667V17.25H12V16.1667ZM12 19.4167V24.8333C12 25.408 12.2239 25.9591 12.6224 26.3654C13.0209 26.7717 13.5614 27 14.125 27H26.875C27.4386 27 27.9791 26.7717 28.3776 26.3654C28.7761 25.9591 29 25.408 29 24.8333V19.4167H12ZM15.1875 21.5833H16.25C16.5318 21.5833 16.802 21.6975 17.0013 21.9006C17.2006 22.1038 17.3125 22.3793 17.3125 22.6667V23.75C17.3125 24.0373 17.2006 24.3129 17.0013 24.516C16.802 24.7192 16.5318 24.8333 16.25 24.8333H15.1875C14.9057 24.8333 14.6355 24.7192 14.4362 24.516C14.2369 24.3129 14.125 24.0373 14.125 23.75V22.6667C14.125 22.3793 14.2369 22.1038 14.4362 21.9006C14.6355 21.6975 14.9057 21.5833 15.1875 21.5833Z" fill="white"/>
</svg>
