<svg width="104" height="104" viewBox="0 0 104 104" fill="none" xmlns="http://www.w3.org/2000/svg">
<rect width="104" height="104" rx="52" fill="#E6F0FF"/>
<path fill-rule="evenodd" clip-rule="evenodd" d="M37.9154 31.4607L37.716 31.6694V34.5219V37.3743H38.3657H39.0155V34.9934V32.6125H41.2896H43.5638V31.9322V31.252H40.8393H38.1147L37.9154 31.4607ZM55.2594 31.9322V32.6125H57.5335H59.8076V34.9934V37.3743H60.4574H61.1071V34.5219V31.6694L60.9077 31.4607L60.7084 31.252H57.9839H55.2594V31.9322ZM47.8189 34.1062C47.0156 34.2475 45.7781 34.7011 45.0787 35.1106C43.7791 35.8714 42.4299 37.2491 41.9465 38.3087C41.6722 38.9101 41.6551 38.9972 41.6551 39.799V40.6506L42.6094 42.6986C43.1344 43.825 43.5638 44.7672 43.5638 44.7923C43.5638 44.8174 43.3091 44.853 42.9978 44.8715C42.1006 44.9245 41.6551 45.3712 41.6551 46.2177C41.6551 47.0642 42.1006 47.5109 42.9978 47.564L43.5638 47.5975L43.5648 48.3744C43.5678 50.5797 44.3973 52.4098 46.0747 53.9117L46.8125 54.5724V56.1712V57.7701L46.3861 57.8986C46.1517 57.9693 44.4978 58.4347 42.711 58.933C40.9241 59.4313 39.1652 59.9672 38.8021 60.1238C36.1255 61.279 33.965 63.6929 33.058 66.5417C32.6486 67.8276 32.5842 68.3327 32.5409 70.6009L32.5 72.748H49.4026H66.3052L66.3047 70.9835C66.304 68.3705 66.0806 67.1053 65.3276 65.4494C64.7922 64.2722 64.3069 63.5278 63.4852 62.6238C62.453 61.4883 61.2556 60.6296 59.9433 60.0839C59.5998 59.941 57.7383 59.3828 55.8068 58.8434C53.8752 58.3039 52.2308 57.842 52.1527 57.8167C52.024 57.775 52.0106 57.6207 52.0106 56.1791V54.5874L52.7179 53.9527C53.6317 53.1327 54.1308 52.4804 54.57 51.5323C55.0479 50.5001 55.1778 49.9411 55.2342 48.6713L55.282 47.5961L55.8366 47.5633C56.7218 47.5109 57.168 47.06 57.168 46.2177C57.168 45.375 56.7219 44.9245 55.8353 44.8721L55.2792 44.8392L56.0783 43.365C57.0433 41.5847 57.1686 41.228 57.1664 40.2654C57.1643 39.3355 56.9898 38.7447 56.484 37.9546C56.0466 37.2715 55.0411 36.1852 54.4059 35.7096C52.5162 34.295 50.0954 33.7057 47.8189 34.1062ZM65.1681 38.1861C63.7443 38.5045 62.3349 39.6573 61.6869 41.0336C60.9201 42.6619 60.9187 44.2928 61.6826 45.9451C62.5065 47.7272 64.3745 48.9358 66.3052 48.9358C68.228 48.9358 70.0528 47.7587 70.9173 45.9605C71.6939 44.3451 71.6942 42.6541 70.9183 41.0307C69.8725 38.8432 67.4934 37.6662 65.1681 38.1861ZM69.5551 41.4996L69.9973 41.9685L67.6843 44.3933C66.4121 45.727 65.289 46.8403 65.1884 46.8673C64.7792 46.9772 64.6184 46.8374 63.9466 45.7876C63.5868 45.2253 63.2732 44.7127 63.2496 44.6486C63.2227 44.5748 63.3868 44.404 63.6958 44.1843C63.9646 43.9932 64.2037 43.8368 64.2272 43.8368C64.2506 43.8368 64.4579 44.1287 64.6879 44.4856L65.1061 45.1343L67.0658 43.0826C68.1437 41.954 69.0452 41.0307 69.0692 41.0307C69.0932 41.0307 69.3118 41.2417 69.5551 41.4996ZM37.716 52.4715V55.324L37.9154 55.5326L38.1147 55.7414H40.8393H43.5638V55.0611V54.3809H41.2896H39.0155V52V49.619H38.3657H37.716V52.4715ZM59.8076 52V54.3809H57.5335H55.2594V55.0611V55.7414H57.9839H60.7084L60.9077 55.5326L61.1071 55.324V52.4715V49.619H60.4574H59.8076V52Z" fill="#325FA4"/>
</svg>
