<svg width="19" height="22" viewBox="0 0 19 22" fill="none" xmlns="http://www.w3.org/2000/svg">
<path d="M2.3734 8.98296C2.41059 8.51518 2.62097 8.0787 2.96264 7.76045C3.30431 7.4422 3.7522 7.26553 4.2171 7.26563H15.3662C15.8311 7.26553 16.279 7.4422 16.6207 7.76045C16.9624 8.0787 17.1727 8.51518 17.2099 8.98296L17.9524 18.3163C17.9728 18.5731 17.9403 18.8315 17.857 19.075C17.7737 19.3186 17.6413 19.5421 17.4682 19.7315C17.2951 19.9208 17.085 20.072 16.8512 20.1754C16.6174 20.2788 16.3649 20.3322 16.1096 20.3323H3.4737C3.21844 20.3322 2.96595 20.2788 2.73214 20.1754C2.49832 20.072 2.28825 19.9208 2.11515 19.7315C1.94205 19.5421 1.80966 19.3186 1.72632 19.075C1.64299 18.8315 1.61051 18.5731 1.63093 18.3163L2.3734 8.98296V8.98296Z" stroke="black" stroke-width="1.5" stroke-linecap="round" stroke-linejoin="round"/>
<path d="M13.4907 10.066V5.39935C13.4907 4.40921 13.1011 3.45962 12.4075 2.75948C11.7139 2.05935 10.7732 1.66602 9.79225 1.66602C8.81135 1.66602 7.87062 2.05935 7.17702 2.75948C6.48341 3.45962 6.09375 4.40921 6.09375 5.39935V10.066" stroke="black" stroke-width="1.5" stroke-linecap="round" stroke-linejoin="round"/>
</svg>
