<svg width="96" height="96" viewBox="0 0 96 96" fill="none" xmlns="http://www.w3.org/2000/svg">
<rect width="96" height="96" rx="48" fill="#E6F0FF"/>
<g clip-path="url(#clip0_668_37916)">
<path d="M45.6375 27.0625L43.832 28.6101L45.6375 30.4157" stroke="#325FA4" stroke-width="2" stroke-linecap="round" stroke-linejoin="round"/>
<path d="M43.832 28.6094H49.763C51.5383 28.6094 53.0461 30.0591 53.1153 31.8336C53.1884 33.7087 51.639 35.3157 49.763 35.3157H45.3792" stroke="#325FA4" stroke-width="2" stroke-linecap="round" stroke-linejoin="round"/>
</g>
<path d="M32.7036 40.4492L48.0017 42.3276L63.3017 40.4492C63.7204 40.3961 64.1267 40.6175 64.3204 41.0007L66.9267 46.274C67.4829 47.4061 66.8892 48.7785 65.6829 49.1263L55.4767 52.0798C54.6079 52.3265 53.6767 51.9596 53.2142 51.1185L48.0017 42.3276L42.7892 51.1185C42.3267 51.9596 41.3954 52.3265 40.5267 52.0798L30.3186 49.1263C29.1148 48.7785 28.5194 47.4061 29.0792 46.274L31.6854 41.0007C31.8748 40.6175 32.2829 40.3961 32.7036 40.4492ZM48.0704 46.4321L51.4954 52.2126C52.4267 53.7811 54.2829 54.4704 56.0267 54.0214L64.0017 51.7193V62.2747C64.0017 63.6661 63.0642 64.8804 61.7267 65.2219L48.9704 68.4474C48.3329 68.6118 47.6704 68.6118 47.0329 68.4474L34.2767 65.2219C32.9386 64.8804 32.0017 63.6661 32.0017 62.2747V51.7193L39.9767 54.0214C41.7204 54.4704 43.5767 53.7811 44.5079 52.2126L47.9329 46.4321H48.0704Z" fill="#325FA4"/>
<defs>
<clipPath id="clip0_668_37916">
<rect width="12.381" height="12.381" fill="white" transform="translate(42.2852 25)"/>
</clipPath>
</defs>
</svg>
