<svg width="24" height="24" viewBox="0 0 24 24" fill="none" xmlns="http://www.w3.org/2000/svg">
<path d="M10.7943 2.99826C11.1366 2.72364 11.5623 2.57397 12.0011 2.57397C12.44 2.57397 12.8657 2.72364 13.208 2.99826L19.8508 8.32711C20.0761 8.50782 20.2579 8.73681 20.3828 8.99717C20.5077 9.25753 20.5725 9.54262 20.5725 9.8314V19.5C20.5725 20.0115 20.3694 20.502 20.0077 20.8637C19.646 21.2254 19.1555 21.4285 18.644 21.4285H16.5011C15.9896 21.4285 15.4991 21.2254 15.1374 20.8637C14.7757 20.502 14.5725 20.0115 14.5725 19.5V13.9285C14.5725 13.758 14.5048 13.5945 14.3843 13.474C14.2637 13.3534 14.1002 13.2857 13.9297 13.2857H10.0725C9.90205 13.2857 9.73854 13.3534 9.61798 13.474C9.49742 13.5945 9.42969 13.758 9.42969 13.9285V19.5C9.42969 20.0115 9.2265 20.502 8.86482 20.8637C8.50314 21.2254 8.0126 21.4285 7.50112 21.4285H5.35826C4.84677 21.4285 4.35623 21.2254 3.99455 20.8637C3.63288 20.502 3.42969 20.0115 3.42969 19.5V9.8314C3.42969 9.24597 3.6954 8.69311 4.1514 8.32711L10.7943 2.99826V2.99826Z" fill="#325FA4"/>
</svg>
