<svg width="28" height="28" viewBox="0 0 28 28" fill="none" xmlns="http://www.w3.org/2000/svg">
<path d="M13.9997 27.3334C21.3597 27.3334 27.333 21.36 27.333 14C27.333 6.64004 21.3597 0.666709 13.9997 0.666709C6.63968 0.666708 0.666345 6.64004 0.666345 14C0.666344 21.36 6.63968 27.3334 13.9997 27.3334ZM8.62634 13.2934L12.6263 9.29337C12.8263 9.09337 13.0797 9.00004 13.333 9.00004C13.5863 9.00004 13.8397 9.09337 14.0397 9.29337C14.4263 9.68004 14.4263 10.32 14.0397 10.7067L11.7463 13L18.6663 13C19.213 13 19.6663 13.4534 19.6663 14C19.6663 14.5467 19.213 15 18.6663 15L11.7463 15L14.0397 17.2934C14.4263 17.68 14.4263 18.32 14.0397 18.7067C13.653 19.0934 13.013 19.0934 12.6263 18.7067L8.62634 14.7067C8.23968 14.32 8.23968 13.68 8.62634 13.2934Z" fill="#325FA4"/>
</svg>
