<svg width="61" height="80" viewBox="0 0 61 80" fill="none" xmlns="http://www.w3.org/2000/svg">
<g clip-path="url(#clip0_884_40540)">
<path d="M17.3552 27.0702C21.325 23.1655 21.325 16.8327 17.3552 12.928C13.3855 9.02334 6.94709 9.02334 2.97732 12.928C-0.992441 16.8327 -0.992441 23.1655 2.97732 27.0702C6.94868 30.9765 13.3855 30.9765 17.3552 27.0702ZM58.0219 52.928C54.0521 49.0233 47.6138 49.0233 43.644 52.928C39.6742 56.8327 39.6742 63.1655 43.644 67.0702C47.6138 70.9749 54.0521 70.9749 58.0219 67.0702C61.9932 63.1655 61.9932 56.8343 58.0219 52.928ZM57.7137 16.7671L54.1204 13.2327C52.1348 11.2796 48.9164 11.2796 46.9323 13.2327L3.28709 56.1624C1.30141 58.1155 1.30141 61.2812 3.28709 63.2327L6.88037 66.7671C8.86605 68.7202 12.0844 68.7202 14.0685 66.7671L57.7137 23.8374C59.6994 21.8858 59.6994 18.7202 57.7137 16.7671Z" fill="white"/>
</g>
<defs>
<clipPath id="clip0_884_40540">
<rect width="61" height="80" fill="white"/>
</clipPath>
</defs>
</svg>
