<svg width="56" height="57" viewBox="0 0 56 57" fill="none" xmlns="http://www.w3.org/2000/svg">
<path fill-rule="evenodd" clip-rule="evenodd" d="M12.8204 5.16424C11.4714 6.03269 10.7674 7.30347 10.0011 10.2532C9.70653 11.3868 9.32395 12.5837 9.15087 12.913C8.79141 13.5969 8.30121 13.9473 6.38383 14.8911C4.0699 16.0302 3.00092 16.8149 2.27246 17.9092C1.25474 19.4383 1.3471 21.248 2.60009 24.3296C3.39209 26.2775 3.61674 27.211 3.45699 27.8918C3.385 28.1989 2.95122 29.1789 2.49292 30.0696C2.03473 30.9603 1.53303 32.0025 1.37788 32.3857C0.699706 34.0617 0.658685 35.5534 1.25641 36.8084C1.86785 38.0924 2.69789 38.8572 5.29575 40.5299C7.28497 41.8106 7.54173 42.0849 7.85125 43.2586C7.98276 43.7571 8.16012 44.7185 8.24547 45.3949C8.64913 48.5946 9.54767 50.3603 11.185 51.1714C12.3681 51.7573 13.7108 51.9036 16.253 51.7235C18.2907 51.5792 18.9912 51.6494 19.6474 52.0636C19.9579 52.2598 20.8847 53.1042 21.707 53.9403C24.0625 56.3353 25.4655 57.0748 27.3255 56.9022C28.6609 56.7782 29.614 56.2122 32.6183 53.7586C33.6648 52.9038 34.5289 52.5164 35.3025 52.5549C35.5661 52.568 36.6456 52.7222 37.7014 52.8976C40.989 53.4437 42.48 53.2488 43.7924 52.1016C44.8868 51.1451 45.4417 49.9547 46.1792 46.9803C46.8407 44.3131 47.01 44.1108 49.714 42.7564C50.6241 42.3005 51.684 41.7176 52.0695 41.4611C53.7009 40.375 54.5672 38.8221 54.5073 37.0906C54.4814 36.3399 53.9954 34.6183 53.387 33.1222C52.6104 31.2121 52.4609 30.5658 52.6195 29.8052C52.6923 29.4563 53.1154 28.4741 53.5596 27.6225C54.99 24.88 55.3383 23.7654 55.208 22.3479C55.1553 21.776 55.0514 21.3853 54.8163 20.8751C54.2052 19.5494 53.3959 18.802 50.7443 17.1159C49.9339 16.6004 49.0763 15.9613 48.8388 15.6956C48.3221 15.1173 48.1321 14.4942 47.8492 12.4473C47.4047 9.23354 46.7001 7.6729 45.2609 6.71496C44.1277 5.96068 42.7524 5.76191 39.8562 5.9336C37.7606 6.05787 37.0241 5.98833 36.3902 5.60642C36.1467 5.45964 35.2766 4.6616 34.4569 3.83288C32.2909 1.64319 31.1468 0.899338 29.7252 0.75702C28.1807 0.602369 26.9422 1.1011 25.0141 2.65385C21.5736 5.42484 21.8146 5.34923 18.2919 4.76176C15.4185 4.28246 14.0315 4.38445 12.8204 5.16424ZM13.0383 26.2348C13.6107 26.3155 13.8779 26.5182 15.5258 28.1215L16.9854 29.5416L16.6322 27.9969C16.2986 26.5384 16.29 26.4254 16.4772 25.9718C16.9921 24.7245 18.3791 24.3852 19.4668 25.2404C19.7738 25.4818 19.8263 25.6442 21.1246 30.3586C21.862 33.0366 22.4795 35.4014 22.4967 35.6136C22.541 36.161 22.0207 37.06 21.521 37.2995C20.9083 37.593 20.2992 37.592 19.7915 37.2967C19.5429 37.1522 18.6808 36.3954 17.8757 35.615L16.4118 34.1961L16.768 35.752C17.0747 37.0911 17.1034 37.36 16.9742 37.6821C16.7371 38.2734 16.396 38.6316 15.8749 38.8359C15.2371 39.0861 14.6027 38.992 14.0481 38.5649L13.6074 38.2257L12.2695 33.3679C11.5339 30.6961 10.9179 28.3384 10.9008 28.1284C10.813 27.045 11.9075 26.0753 13.0383 26.2348ZM29.6468 21.9288C30.3596 22.2125 30.6417 22.5238 30.8331 23.2381C31.0245 23.9523 30.9359 24.3629 30.4605 24.9651C30.2323 25.2542 30.0252 25.3347 28.0762 25.8913L25.9417 26.5008L26.058 26.9346L26.1742 27.3684L27.1848 27.14C28.09 26.9354 28.2491 26.9335 28.7102 27.1225C29.9326 27.6233 30.2582 29.0123 29.4063 30.091C29.2075 30.3426 28.9505 30.4715 28.1555 30.7181L27.155 31.0286L27.2712 31.4624L27.3874 31.8962L29.5406 31.3568C31.5069 30.8643 31.7265 30.8304 32.0686 30.9668C32.7814 31.2505 33.0634 31.5618 33.2548 32.2761C33.4462 32.9904 33.3577 33.401 32.8821 34.0031C32.6455 34.3027 32.4601 34.3678 29.4295 35.2135C25.8302 36.2178 25.6749 36.2328 24.9201 35.6518L24.4793 35.3126L23.1415 30.4548C22.4059 27.783 21.7899 25.4252 21.7728 25.2152C21.7344 24.7407 22.0551 24.0365 22.4575 23.7126C22.6945 23.5217 23.4833 23.2804 26.017 22.6234C29.1052 21.8228 29.2911 21.7873 29.6468 21.9288ZM34.3119 20.7901C35.101 21.1132 35.2567 21.4009 35.859 23.6484L36.391 25.6338L36.6964 25.0751C37.2868 23.9952 38.4198 23.6916 39.4711 24.3317L40.015 24.6628L39.4809 22.6698C38.8792 20.4239 38.874 20.1001 39.4276 19.3846C39.6881 19.0479 39.8645 18.9413 40.3977 18.7984C41.1018 18.6098 41.5173 18.6999 42.1168 19.1715C42.4262 19.4149 42.4672 19.5453 43.822 24.6012C45.1767 29.657 45.2064 29.7905 45.0601 30.156C44.7779 30.8613 44.4613 31.1501 43.7667 31.3363C42.8964 31.5695 42.6175 31.447 40.7819 30.026C39.9464 29.3791 39.2342 28.8576 39.1994 28.8669C39.1645 28.8763 38.8085 29.684 38.4084 30.662C37.5319 32.8041 37.3473 33.0563 36.4898 33.2861C35.9784 33.4231 35.7665 33.4178 35.3767 33.2581C34.4382 32.8739 34.4626 32.9331 33.0115 27.5177C32.1623 24.3482 31.7212 22.534 31.7445 22.3055C31.8686 21.0831 33.1623 20.3194 34.3119 20.7901Z" fill="#325FA4"/>
</svg>
