<svg width="64" height="64" viewBox="0 0 64 64" fill="none" xmlns="http://www.w3.org/2000/svg">
<circle cx="32" cy="32" r="32" fill="white"/>
<path d="M32.0013 18.6665C24.6546 18.6665 18.668 24.6532 18.668 31.9998C18.668 39.3465 24.6546 45.3332 32.0013 45.3332C39.348 45.3332 45.3346 39.3465 45.3346 31.9998C45.3346 24.6532 39.348 18.6665 32.0013 18.6665ZM38.3746 28.9332L30.8146 36.4932C30.628 36.6798 30.3746 36.7865 30.108 36.7865C29.8413 36.7865 29.588 36.6798 29.4013 36.4932L25.628 32.7198C25.2413 32.3332 25.2413 31.6932 25.628 31.3065C26.0146 30.9198 26.6546 30.9198 27.0413 31.3065L30.108 34.3732L36.9613 27.5198C37.348 27.1332 37.988 27.1332 38.3746 27.5198C38.7613 27.9065 38.7613 28.5332 38.3746 28.9332Z" fill="#325FA4"/>
</svg>
