<svg width="25" height="24" viewBox="0 0 25 24" fill="none" xmlns="http://www.w3.org/2000/svg">
<path d="M18.5028 5.44635C18.8139 5.15689 19.2278 4.99687 19.6572 5.00005C20.0867 5.00322 20.4981 5.16935 20.8046 5.46337C21.1112 5.7574 21.2889 6.15632 21.3002 6.57596C21.3116 6.9956 21.1557 7.40315 20.8655 7.71259L12.0552 18.4826C11.9037 18.6421 11.7209 18.7701 11.5176 18.859C11.3143 18.9478 11.0948 18.9957 10.8722 18.9997C10.6496 19.0038 10.4284 18.9639 10.222 18.8824C10.0155 18.801 9.8279 18.6797 9.67047 18.5258L3.82787 12.8149C3.66516 12.6667 3.53466 12.488 3.44415 12.2894C3.35363 12.0908 3.30496 11.8765 3.30104 11.6591C3.29712 11.4418 3.33802 11.2259 3.42131 11.0243C3.5046 10.8228 3.62857 10.6397 3.78583 10.486C3.94309 10.3322 4.13041 10.2111 4.33662 10.1297C4.54283 10.0482 4.7637 10.0083 4.98606 10.0121C5.20842 10.0159 5.42772 10.0635 5.63086 10.152C5.834 10.2404 6.01683 10.368 6.16844 10.527L10.7922 15.0444L18.4609 5.49383C18.4747 5.47721 18.4894 5.46136 18.505 5.44635H18.5028Z" fill="#449C43"/>
</svg>
