<svg width="26" height="30" viewBox="0 0 26 30" fill="none" xmlns="http://www.w3.org/2000/svg">
<path d="M16.9972 24.3352C16.9962 23.6235 17.1868 22.9248 17.5485 22.312L8.45459 17.0156C8.10281 17.6197 7.59897 18.1208 6.99283 18.4692C6.38668 18.8175 5.69976 19.0009 5.00065 19.0007C3.93976 19.0003 2.9219 18.5788 2.17173 17.8286C1.42157 17.0785 1.00042 16.061 1 15.0001C1.00042 13.9394 1.4223 12.9223 2.17251 12.1724C2.92272 11.4225 3.9399 11.0011 5.00065 11.0011C5.7 11.0007 6.38718 11.1839 6.9936 11.5322C7.60002 11.8806 8.1041 12.382 8.45614 12.9862L17.5423 7.68207C17.1847 7.07069 16.9962 6.37492 16.9972 5.66664C16.9974 5.14107 17.1014 4.62058 17.3027 4.13509C17.504 3.64961 17.7987 3.20845 18.1704 2.83697C18.5422 2.46548 18.9837 2.17093 19.4694 1.97C19.955 1.76906 20.4753 1.66581 21.0009 1.66602C21.5262 1.66602 22.0464 1.76932 22.5317 1.97039C23.017 2.17145 23.4577 2.46624 23.829 2.83774C24.2004 3.20925 24.4951 3.65051 24.696 4.13587C24.8969 4.62123 25.0002 5.14135 25 5.66664C25.0002 6.19185 24.8969 6.71174 24.696 7.19702C24.4951 7.68229 24.2004 8.12337 23.829 8.49475C23.4577 8.86613 23.017 9.16044 22.5317 9.36134C22.0464 9.56223 21.5261 9.66553 21.0009 9.66532C20.3013 9.66571 19.6141 9.48293 19.0072 9.1349C18.4003 8.78687 17.8953 8.28609 17.5423 7.68207L8.45614 12.9862C8.81263 13.5974 9.00055 14.2926 8.99974 15.0001C9.00091 15.7079 8.81242 16.4033 8.45459 17.014L17.5485 22.3104C17.9008 21.7076 18.4052 21.2075 19.011 20.8603C19.6169 20.5131 20.3026 20.3307 21.0009 20.3314C21.5263 20.3314 22.0471 20.435 22.5325 20.6362C23.0178 20.8374 23.4584 21.1323 23.8298 21.5039C24.2012 21.8756 24.496 22.3169 24.6968 22.8025C24.8976 23.288 25.0004 23.8082 25 24.3336C25 25.3942 24.579 26.4114 23.829 27.1613C23.0791 27.9113 22.0615 28.3327 21.0009 28.3327C19.94 28.3331 18.9228 27.9121 18.172 27.1625C17.4212 26.4129 16.9984 25.396 16.9972 24.3352V24.3352Z" stroke="black" stroke-width="1.5" stroke-linecap="round"/>
</svg>
