<svg width="50" height="52" viewBox="0 0 50 52" fill="none" xmlns="http://www.w3.org/2000/svg">
<path d="M1.63125 27.3563C0.581249 25.9688 0 24.2688 0 22.5C0 19.6938 1.56875 17.0375 4.09375 15.5563C4.74379 15.175 5.48389 14.9743 6.2375 14.975L21.225 14.975L20.85 7.29376C20.7625 5.43751 21.4187 3.67501 22.6937 2.33126C23.3195 1.66894 24.0744 1.14197 24.9118 0.782917C25.7492 0.423869 26.6514 0.24037 27.5625 0.24376C30.8125 0.24376 33.6875 2.43126 34.55 5.56251L39.9188 25H39.9375V51.75H10.4188C9.84375 51.75 9.28125 51.6375 8.7625 51.4125C5.7875 50.1438 3.86875 47.2375 3.86875 44.0125C3.86875 43.225 3.98125 42.45 4.20625 41.7C3.15625 40.3125 2.575 38.6125 2.575 36.8438C2.575 36.0563 2.6875 35.2813 2.9125 34.5313C1.8625 33.1438 1.28125 31.4438 1.28125 29.675C1.29375 28.8875 1.40625 28.1063 1.63125 27.3563ZM50 27V49.75C50 50.8563 49.1063 51.75 48 51.75H43.9375V25H48C49.1063 25 50 25.8938 50 27Z" fill="#325FA4"/>
</svg>
