<svg width="48" height="48" viewBox="0 0 48 48" fill="none" xmlns="http://www.w3.org/2000/svg">
<path d="M24 21.7778C25.8083 21.7778 27.576 21.2565 29.0795 20.2797C30.583 19.303 31.7549 17.9148 32.4469 16.2905C33.1389 14.6663 33.32 12.879 32.9672 11.1548C32.6144 9.43048 31.7436 7.84663 30.465 6.6035C29.1863 5.36037 27.5572 4.51378 25.7837 4.1708C24.0101 3.82782 22.1718 4.00385 20.5012 4.67663C18.8305 5.34941 17.4026 6.48872 16.398 7.95049C15.3934 9.41226 14.8571 11.1308 14.8571 12.8889C14.8571 15.2464 15.8204 17.5073 17.535 19.1743C19.2496 20.8413 21.5752 21.7778 24 21.7778ZM37.7143 44C38.3205 44 38.9019 43.7659 39.3305 43.3491C39.7592 42.9324 40 42.3671 40 41.7778C40 37.6522 38.3143 33.6956 35.3137 30.7783C32.3131 27.8611 28.2435 26.2222 24 26.2222C19.7565 26.2222 15.6869 27.8611 12.6863 30.7783C9.68571 33.6956 8 37.6522 8 41.7778C8 42.3671 8.24082 42.9324 8.66947 43.3491C9.09813 43.7659 9.67951 44 10.2857 44H37.7143Z" fill="#325FA4"/>
</svg>
