<svg width="16" height="16" viewBox="0 0 16 16" fill="none" xmlns="http://www.w3.org/2000/svg">
<path d="M8.0005 15.4992C6.5165 15.5001 5.0656 15.0607 3.83142 14.2366C2.59724 13.4126 1.63527 12.2409 1.06725 10.8699C0.499227 9.49894 0.350695 7.99025 0.640448 6.53482C0.930202 5.07938 1.64522 3.74261 2.695 2.6937C4.1021 1.2866 6.01055 0.496094 8.0005 0.496094C9.99045 0.496094 11.8989 1.2866 13.306 2.6937C14.7131 4.10081 15.5036 6.00926 15.5036 7.9992C15.5036 9.98915 14.7131 11.8976 13.306 13.3047C12.6107 14.0031 11.7838 14.5567 10.8731 14.9334C9.96238 15.3101 8.98602 15.5024 8.0005 15.4992V15.4992ZM2.0005 8.1282C2.01754 9.71382 2.66158 11.2282 3.79185 12.3404C4.92213 13.4526 6.44671 14.0721 8.0324 14.0636C9.61809 14.0551 11.1359 13.4192 12.2542 12.2949C13.3724 11.1706 14.0002 9.64942 14.0002 8.0637C14.0002 6.47799 13.3724 4.95676 12.2542 3.83248C11.1359 2.7082 9.61809 2.07231 8.0324 2.06379C6.44671 2.05527 4.92213 2.6748 3.79185 3.78699C2.66158 4.89919 2.01754 6.41358 2.0005 7.9992V8.1282ZM6.05725 10.9992L4.99975 9.9417L6.943 7.9992L5.0005 6.0567L6.058 4.9992L8.0005 6.9417L9.943 4.9992L11.0005 6.0567L9.058 7.9992L11.0005 9.9417L9.9445 10.9992L8.0005 9.0567L6.058 10.9992H6.05725Z" fill="#C42A27"/>
</svg>
