<svg width="28" height="30" viewBox="0 0 28 30" fill="none" xmlns="http://www.w3.org/2000/svg">
<path fill-rule="evenodd" clip-rule="evenodd" d="M4.8871 6.47998C4.59049 6.57706 4.35081 6.93974 4.3527 7.28881C4.3543 7.59506 4.61586 7.93693 4.91781 8.0274C5.02182 8.05858 5.88711 8.06894 7.6559 8.06014L10.2419 8.04729L10.3962 7.94881C10.62 7.80596 10.7609 7.53687 10.7609 7.25211C10.7609 7.12574 10.7328 6.96662 10.6985 6.89849C10.6094 6.72159 10.3726 6.52123 10.1917 6.46965C9.9733 6.40737 5.07982 6.4169 4.8871 6.47998ZM12.4585 6.47585C11.7544 6.72846 11.721 7.70913 12.4065 8.00313C12.5188 8.05133 12.7066 8.06835 13.1263 8.06835C13.5131 8.06835 13.7097 8.08445 13.7433 8.11892C13.8283 8.20614 13.799 8.35295 13.6797 8.4382C13.6176 8.48257 12.8506 8.94233 11.9753 9.45991C11.1 9.97748 10.3981 10.4149 10.4155 10.4319C10.4545 10.4699 17.0653 14.389 17.0904 14.389C17.1004 14.389 17.5492 14.127 18.0878 13.8069C18.6265 13.4867 20.1344 12.5928 21.4389 11.8203L23.8105 10.4159L23.6965 10.3448C23.5767 10.27 17.8308 6.86465 17.3547 6.58625L17.0789 6.42499L14.8303 6.42832C13.3757 6.43047 12.5382 6.44724 12.4585 6.47585ZM21.1401 13.6498L17.7947 15.6322L17.7843 19.6036C17.7783 21.852 17.7893 23.575 17.8097 23.575C17.8294 23.575 19.3118 22.7057 21.1039 21.6434C23.6651 20.125 24.3776 19.6846 24.4343 19.5849C24.5019 19.466 24.5058 19.2145 24.496 15.5627L24.4855 11.6673L21.1401 13.6498ZM3.95991 11.7714C3.36542 12.0486 3.34194 12.9162 3.92055 13.2265C4.08063 13.3123 4.14869 13.315 6.65023 13.3356C9.07078 13.3554 9.22295 13.3611 9.34354 13.4361C9.78132 13.7081 9.75402 14.5114 9.29782 14.7826C9.2415 14.8161 8.7376 14.8381 7.69383 14.8525L6.17198 14.8736L6.00143 14.9895C5.69074 15.2007 5.55536 15.6924 5.71869 16.0166C5.81047 16.1987 6.04535 16.399 6.22838 16.4512C6.32525 16.4788 7.03538 16.4955 8.12175 16.4956C9.64028 16.4958 9.87782 16.5045 10.0005 16.5643C10.3939 16.7559 10.4953 17.3931 10.1914 17.7638C9.98114 18.0204 10.0796 18.0127 6.96966 18.0138C4.29934 18.0146 4.11565 18.0194 3.95991 18.092C3.36542 18.3692 3.34194 19.2369 3.92055 19.5471C4.08178 19.6335 4.13539 19.6353 6.90592 19.6465L9.72714 19.6579L13.0317 21.6164C14.8493 22.6936 16.3459 23.575 16.3575 23.575C16.3691 23.575 16.3786 21.7874 16.3786 19.6026V15.6302L15.9784 15.3928C14.246 14.3653 13.002 13.628 10.8087 12.329L9.73362 11.6922L6.92968 11.6931C4.29815 11.694 4.11561 11.6988 3.95991 11.7714Z" fill="#325FA4"/>
</svg>
