<svg width="21" height="21" viewBox="0 0 21 21" fill="none" xmlns="http://www.w3.org/2000/svg">
<path d="M10.5 1.75C8.76942 1.75 7.07769 2.26318 5.63876 3.22464C4.19983 4.1861 3.07832 5.55267 2.41606 7.15152C1.75379 8.75037 1.58051 10.5097 1.91813 12.207C2.25575 13.9044 3.08911 15.4635 4.31282 16.6872C5.53653 17.9109 7.09563 18.7442 8.79296 19.0819C10.4903 19.4195 12.2496 19.2462 13.8485 18.5839C15.4473 17.9217 16.8139 16.8002 17.7754 15.3612C18.7368 13.9223 19.25 12.2306 19.25 10.5C19.25 8.17936 18.3281 5.95376 16.6872 4.31282C15.0462 2.67187 12.8206 1.75 10.5 1.75ZM9.25 13.9937L6.125 10.8687L7.11875 9.875L9.25 12.0063L13.8813 7.375L14.8788 8.36625L9.25 13.9937Z" fill="#325FA4"/>
</svg>
