<svg width="28" height="28" viewBox="0 0 28 28" fill="none" xmlns="http://www.w3.org/2000/svg">
<path d="M14.0013 0.666016C6.6413 0.666016 0.667969 6.63935 0.667969 13.9993C0.667969 21.3593 6.6413 27.3327 14.0013 27.3327C21.3613 27.3327 27.3346 21.3593 27.3346 13.9993C27.3346 6.63935 21.3613 0.666016 14.0013 0.666016ZM18.668 14.9993H11.748L14.0413 17.2927C14.428 17.6793 14.428 18.3193 14.0413 18.706C13.8413 18.906 13.588 18.9993 13.3346 18.9993C13.0813 18.9993 12.828 18.906 12.628 18.706L8.62797 14.706C8.2413 14.3193 8.2413 13.6793 8.62797 13.2927L12.628 9.29268C13.0146 8.90602 13.6546 8.90602 14.0413 9.29268C14.428 9.67935 14.428 10.3193 14.0413 10.706L11.748 12.9993H18.668C19.2146 12.9993 19.668 13.4527 19.668 13.9993C19.668 14.546 19.2146 14.9993 18.668 14.9993Z" fill="#325FA4"/>
</svg>
