<svg width="44" height="44" viewBox="0 0 44 44" fill="none" xmlns="http://www.w3.org/2000/svg">
<rect x="9" y="9" width="25" height="25" fill="#325FA4"/>
<path d="M29.682 3.66797H14.3187C7.64532 3.66797 3.66699 7.6463 3.66699 14.3196V29.6646C3.66699 36.3563 7.64532 40.3346 14.3187 40.3346H29.6637C36.337 40.3346 40.3153 36.3563 40.3153 29.683V14.3196C40.3336 7.6463 36.3553 3.66797 29.682 3.66797ZM28.1603 26.218C28.692 26.7496 28.692 27.6296 28.1603 28.1613C27.8853 28.4363 27.537 28.5646 27.1887 28.5646C26.8403 28.5646 26.492 28.4363 26.217 28.1613L22.0003 23.9446L17.7837 28.1613C17.5087 28.4363 17.1603 28.5646 16.812 28.5646C16.4637 28.5646 16.1153 28.4363 15.8403 28.1613C15.3087 27.6296 15.3087 26.7496 15.8403 26.218L20.057 22.0013L15.8403 17.7846C15.3087 17.253 15.3087 16.373 15.8403 15.8413C16.372 15.3096 17.252 15.3096 17.7837 15.8413L22.0003 20.058L26.217 15.8413C26.7487 15.3096 27.6287 15.3096 28.1603 15.8413C28.692 16.373 28.692 17.253 28.1603 17.7846L23.9437 22.0013L28.1603 26.218Z" fill="#E6F0FF"/>
</svg>
