<svg width="28" height="30" viewBox="0 0 28 30" fill="none" xmlns="http://www.w3.org/2000/svg">
<g clip-path="url(#clip0_2521_7943)">
<path d="M12.9214 3.90723L11.957 4.77516L12.9214 5.78776" stroke="#4F7CC1" stroke-linecap="round" stroke-linejoin="round"/>
<path d="M11.957 4.77515H15.1248C16.0731 4.77515 16.8784 5.58817 16.9154 6.58335C16.9544 7.63494 16.1269 8.53621 15.1248 8.53621H12.7834" stroke="#4F7CC1" stroke-linecap="round" stroke-linejoin="round"/>
</g>
<g clip-path="url(#clip1_2521_7943)">
<path d="M6.01 11.4122L14.181 12.4656L22.3529 11.4122C22.5766 11.3824 22.7936 11.5066 22.8971 11.7215L24.2891 14.6789C24.5862 15.3138 24.2691 16.0834 23.6248 16.2785L18.1735 17.9349C17.7095 18.0732 17.2121 17.8675 16.965 17.3958L14.181 12.4656L11.3969 17.3958C11.1499 17.8675 10.6525 18.0732 10.1885 17.9349L4.73614 16.2785C4.09319 16.0834 3.77516 15.3138 4.07417 14.6789L5.4662 11.7215C5.56735 11.5066 5.78534 11.3824 6.01 11.4122ZM14.2177 14.7676L16.047 18.0094C16.5444 18.889 17.5359 19.2756 18.4672 19.0238L22.7268 17.7327V23.6524C22.7268 24.4327 22.2261 25.1137 21.5117 25.3053L14.6984 27.1142C14.3579 27.2064 14.004 27.2064 13.6635 27.1142L6.85023 25.3053C6.13552 25.1137 5.63512 24.4327 5.63512 23.6524V17.7327L9.89469 19.0238C10.8261 19.2756 11.8175 18.889 12.3149 18.0094L14.1442 14.7676H14.2177Z" fill="#4F7CC1"/>
</g>
<defs>
<clipPath id="clip0_2521_7943">
<rect width="6.61286" height="6.9435" fill="white" transform="translate(11.1289 2.75)"/>
</clipPath>
<clipPath id="clip1_2521_7943">
<rect width="21.3646" height="18.1599" fill="white" transform="translate(3.5 10.2275)"/>
</clipPath>
</defs>
</svg>
