<svg width="16" height="16" viewBox="0 0 16 16" fill="none" xmlns="http://www.w3.org/2000/svg">
<path fill-rule="evenodd" clip-rule="evenodd" d="M4.05724 2C3.67078 2 3.30015 2.15804 3.02688 2.43934C2.75362 2.72064 2.6001 3.10218 2.6001 3.5V14L5.1501 12.5L7.7001 14L10.2501 12.5L12.8001 14V3.5C12.8001 3.10218 12.6466 2.72064 12.3733 2.43934C12.1 2.15804 11.7294 2 11.343 2H4.05724ZM5.87867 4.25C5.58883 4.25 5.31085 4.36853 5.1059 4.5795C4.90095 4.79048 4.78581 5.07663 4.78581 5.375C4.78581 5.67337 4.90095 5.95952 5.1059 6.1705C5.31085 6.38147 5.58883 6.5 5.87867 6.5C6.16851 6.5 6.44649 6.38147 6.65144 6.1705C6.85639 5.95952 6.97153 5.67337 6.97153 5.375C6.97153 5.07663 6.85639 4.79048 6.65144 4.5795C6.44649 4.36853 6.16851 4.25 5.87867 4.25ZM10.4009 4.46975C10.2643 4.32915 10.079 4.25016 9.88581 4.25016C9.69262 4.25016 9.50734 4.32915 9.37071 4.46975L4.99928 8.96975C4.9297 9.03894 4.87419 9.12169 4.83601 9.2132C4.79783 9.3047 4.77773 9.40312 4.77689 9.5027C4.77605 9.60228 4.79448 9.70104 4.83111 9.79322C4.86775 9.88539 4.92184 9.96913 4.99025 10.0395C5.05866 10.11 5.14001 10.1657 5.22955 10.2034C5.31908 10.2411 5.41502 10.2601 5.51176 10.2592C5.6085 10.2583 5.7041 10.2376 5.79299 10.1983C5.88188 10.159 5.96227 10.1019 6.02948 10.0303L10.4009 5.53025C10.5375 5.3896 10.6142 5.19887 10.6142 5C10.6142 4.80113 10.5375 4.6104 10.4009 4.46975ZM9.52153 8C9.23168 8 8.95371 8.11853 8.74876 8.32951C8.54381 8.54048 8.42867 8.82663 8.42867 9.125C8.42867 9.42337 8.54381 9.70952 8.74876 9.9205C8.95371 10.1315 9.23168 10.25 9.52153 10.25C9.81137 10.25 10.0893 10.1315 10.2943 9.9205C10.4992 9.70952 10.6144 9.42337 10.6144 9.125C10.6144 8.82663 10.4992 8.54048 10.2943 8.32951C10.0893 8.11853 9.81137 8 9.52153 8Z" fill="#325FA4"/>
</svg>
