<svg width="40" height="39" viewBox="0 0 40 39" fill="none" xmlns="http://www.w3.org/2000/svg">
<circle cx="19.8714" cy="19.4525" r="19.3548" fill="#E6F0FF"/>
<g clip-path="url(#clip0_1886_778)">
<path d="M15.8183 15.8041C16.9205 14.7019 16.9205 12.9144 15.8183 11.8123C14.7162 10.7102 12.9287 10.7102 11.8266 11.8123C10.7245 12.9144 10.7245 14.7019 11.8266 15.8041C12.9292 16.9066 14.7162 16.9066 15.8183 15.8041ZM27.1087 23.1026C26.0065 22.0005 24.219 22.0005 23.1169 23.1026C22.0148 24.2048 22.0148 25.9923 23.1169 27.0944C24.219 28.1965 26.0065 28.1965 27.1087 27.0944C28.2112 25.9923 28.2112 24.2052 27.1087 23.1026ZM27.0231 12.8959L26.0255 11.8983C25.4742 11.347 24.5807 11.347 24.0298 11.8983L11.9126 24.0156C11.3613 24.5669 11.3613 25.4604 11.9126 26.0112L12.9102 27.0088C13.4615 27.5601 14.355 27.5601 14.9059 27.0088L27.0231 14.8916C27.5744 14.3407 27.5744 13.4472 27.0231 12.8959Z" fill="#325FA4"/>
</g>
<defs>
<clipPath id="clip0_1886_778">
<rect width="16.9355" height="22.5806" fill="white" transform="translate(11 8.16223)"/>
</clipPath>
</defs>
</svg>
