<svg width="20" height="20" viewBox="0 0 20 20" fill="none" xmlns="http://www.w3.org/2000/svg">
<path d="M10.0013 1.66797C5.40963 1.66797 1.66797 5.40963 1.66797 10.0013C1.66797 14.593 5.40963 18.3346 10.0013 18.3346C14.593 18.3346 18.3346 14.593 18.3346 10.0013C18.3346 5.40963 14.593 1.66797 10.0013 1.66797ZM12.8013 11.918C13.043 12.1596 13.043 12.5596 12.8013 12.8013C12.6763 12.9263 12.518 12.9846 12.3596 12.9846C12.2013 12.9846 12.043 12.9263 11.918 12.8013L10.0013 10.8846L8.08463 12.8013C7.95963 12.9263 7.8013 12.9846 7.64297 12.9846C7.48463 12.9846 7.3263 12.9263 7.2013 12.8013C6.95963 12.5596 6.95963 12.1596 7.2013 11.918L9.11797 10.0013L7.2013 8.08463C6.95963 7.84297 6.95963 7.44297 7.2013 7.2013C7.44297 6.95963 7.84297 6.95963 8.08463 7.2013L10.0013 9.11797L11.918 7.2013C12.1596 6.95963 12.5596 6.95963 12.8013 7.2013C13.043 7.44297 13.043 7.84297 12.8013 8.08463L10.8846 10.0013L12.8013 11.918Z" fill="#C42A27"/>
</svg>
